<svg xmlns="http://www.w3.org/2000/svg" width="36" height="36" viewBox="0 0 36 36" fill="none">
  <g clip-path="url(#clip0_2006_194)">
    <path d="M20.6301 17.7642C21.0423 18.4386 21.4795 19.0883 22.3289 19.5879C23.1784 20.0875 24.0278 20.2499 24.54 20.0875C25.2434 19.8645 25.1521 18.0516 25.1521 17.7642" stroke="#696F7A" stroke-width="0.355676"/>
    <path fill-rule="evenodd" clip-rule="evenodd" d="M4.46644 10.0071C4.4956 9.51686 4.91663 9.1431 5.40685 9.17225L8.52555 9.35773C9.01577 9.38689 9.38953 9.80792 9.36038 10.2981L9.02623 15.9165C9.0036 16.2971 8.74486 16.6074 8.40094 16.7136C8.39154 16.6926 8.38262 16.6725 8.37427 16.6536C8.43585 16.5215 8.51019 16.3518 8.56629 16.1745C8.63471 15.9582 8.69553 15.6746 8.65054 15.3837C8.75788 15.1434 8.78164 14.8693 8.62249 14.634C8.50823 14.4651 8.31244 14.363 8.1121 14.3655C8.0967 14.2273 8.03842 14.0931 7.92919 13.9858C7.82288 13.8814 7.67569 13.815 7.51119 13.8161C7.34843 13.8173 7.20749 13.8838 7.10017 13.9734C6.89474 14.1449 6.53239 14.5297 6.42806 14.6548C6.3793 14.7134 6.14733 14.995 5.92168 15.286L5.89809 15.3165C5.87093 15.1183 5.85121 14.8989 5.84707 14.679C5.84208 14.415 5.81229 13.9757 5.75355 13.5891C5.72451 13.398 5.68566 13.2009 5.63261 13.0395C5.6066 12.9603 5.57056 12.8688 5.51847 12.7862C5.50036 12.7575 5.47134 12.7154 5.42935 12.6724C5.31159 12.4542 5.08893 12.3242 4.85197 12.3204C4.64134 12.3169 4.44356 12.4122 4.31348 12.5791L4.46644 10.0071ZM3.85214 12.8472L4.02263 9.98063C4.03964 9.69464 4.14556 9.43507 4.31193 9.22721C4.12917 9.18488 3.93159 9.19982 3.74729 9.28269L0.897899 10.564C0.450011 10.7654 0.250191 11.2917 0.451588 11.7396L2.75981 16.8728C2.90943 17.2056 3.23841 17.4014 3.58133 17.3975C3.5493 17.3117 3.525 17.2413 3.51132 17.1934C3.4278 16.9011 3.19142 15.8153 3.13228 15.4998L3.12175 15.4438L3.12175 15.4438C3.08563 15.2522 3.00724 14.8363 2.94071 14.4238C2.90377 14.1948 2.86955 13.9612 2.84827 13.7645C2.83766 13.6665 2.82966 13.5722 2.82661 13.4894C2.82398 13.4177 2.82303 13.3164 2.84279 13.2242L2.8494 13.1934L2.86029 13.1638C2.89778 13.0619 2.95927 12.9527 3.06093 12.8656C3.16814 12.7737 3.29682 12.7267 3.42707 12.7212C3.59958 12.7139 3.74582 12.7785 3.85214 12.8472Z" fill="#696F7A"/>
    <path d="M3.56927 15.4179C3.51092 15.1067 3.21917 13.5897 3.27752 13.3174C3.43179 12.8983 3.9388 13.4474 3.9388 13.7365C4.13887 13.8671 4.34492 15.0888 4.40087 15.3685C4.45682 15.6483 4.55008 16.068 4.74592 16.6433C4.72727 16.5286 4.72727 16.2264 4.68997 15.8814C4.65266 15.5365 4.55008 14.3707 4.55008 14.1935C4.55008 14.0163 4.54076 13.2329 4.61536 12.9531C4.68395 12.6959 5.00897 12.7085 5.06363 12.9531C5.28871 13.0092 5.39322 14.1931 5.40255 14.6874C5.41188 15.1817 5.49312 15.6722 5.57201 15.972C5.65034 16.2697 5.80387 16.784 5.95565 17.301C5.88725 17.0367 5.7848 16.3859 5.81838 16.2264C5.85568 16.0492 6.67635 15.0514 6.76961 14.9395C6.86286 14.8276 7.20638 14.4639 7.38511 14.3147C7.56383 14.1654 7.73948 14.352 7.64622 14.5571C7.76746 14.7903 7.57592 15.0887 7.43978 15.3208C7.30363 15.5528 6.84421 16.357 6.83489 16.4683C6.82556 16.5796 6.97298 17.0712 7.20638 17.6353C7.12858 17.2657 6.97298 16.6433 6.97298 16.4683C6.97298 16.2932 7.43978 15.6125 7.57592 15.4179C7.71207 15.2234 7.88712 14.9901 8.02327 14.854C8.15942 14.7178 8.45117 14.9123 8.17887 15.3208C8.33447 15.7681 8.02327 16.3516 7.88712 16.6433C7.94547 16.7989 8.35392 17.6936 8.45117 17.8298C8.54842 17.9659 9.19026 18.1993 9.46256 18.3744C9.73486 18.5494 10.1822 19.0551 10.26 19.3663C10.3378 19.6775 10.3378 20.5139 10.4545 20.9806C10.5712 21.4474 11.3103 24.2482 11.4853 24.7928C11.6604 25.3374 12.8079 28.7606 13.1386 29.7525C12.4814 29.3094 9.18381 29.9985 8.52897 30.3944C8.50952 30.0443 8.19832 24.715 8.17887 24.3844C8.15942 24.0537 8.06217 21.8948 8.02327 21.5058C7.98437 21.1168 7.77042 20.7861 7.43978 20.5139C7.10913 20.2416 5.08635 19.3274 4.85295 19.0551C4.61955 18.7828 4.0166 17.3435 3.9388 17.0712C3.86101 16.7989 3.62761 15.7292 3.56927 15.4179Z" fill="#696F7A"/>
    <path d="M17.2178 18.1103C17.0353 17.6237 16.0927 16.9549 15.3324 16.6812L16.6704 16.3467C16.9745 16.4379 17.7347 16.9853 18.2213 17.8367C18.7078 18.6881 20.0762 20.6039 21.1405 22.0635C23.3693 22.6108 26.2795 24.6178 27.1614 26.9593C28.3473 25.8341 30.2326 22.7021 30.5975 21.5161C31.3578 22.0027 33.0606 23.4319 32.9998 25.226C32.939 27.0201 31.1753 28.5709 30.9928 28.7838C30.8104 28.9966 30.7496 31.0948 30.5975 32.0679C30.4759 32.8464 29.7765 34.8047 29.442 35.6865H17.2178C17.7651 35.0175 18.4037 32.9193 18.2213 31.6118C18.0388 30.3042 16.9137 28.5101 16.6704 27.7803C16.7921 26.9897 18.5558 24.3441 19.468 23.4319C19.4984 22.1243 17.4002 18.5969 17.2178 18.1103Z" fill="#696F7A"/>
    <path d="M11.6464 36.0004C10.6863 36.0004 9.18465 34.6412 8.71204 31.8616C9.1446 33.9203 10.6186 35.6396 11.5878 35.5624C13.4698 35.4126 13.8837 32.6851 13.9964 31.9426L13.9989 31.9257C14.0917 31.3151 14.6225 27.9553 15.3991 25.7437C15.4476 25.5867 15.4902 25.47 15.5251 25.4011C15.4825 25.5117 15.4404 25.6261 15.3991 25.7437C15.0737 26.7993 14.4868 29.6764 14.2194 32.0833C13.9122 34.8484 12.6065 36.0005 11.6464 36.0004Z" fill="#696F7A"/>
    <path d="M11.9027 19.2164C11.724 19.7899 11.4314 20.4261 11.4742 23.2326C11.4742 22.5685 11.6863 20.7193 11.8202 20.0941C11.954 19.4689 12.3595 18.318 12.8454 17.6838C12.5454 18.0052 12.0652 18.695 11.9027 19.2164Z" fill="#696F7A"/>
    <path d="M20.3128 4.52863C20.3336 4.15377 20.4794 3.84138 20.8334 4.0289C21.0903 3.98723 21.6581 3.88309 21.8747 3.79979C22.6661 3.07094 23.2284 4.65364 23.3742 5.54915C23.5199 6.44466 24.4154 7.17356 24.6654 7.48595C24.9153 7.79833 25.9982 8.50641 26.3106 8.92292C26.1648 10.0059 25.5189 11.2254 25.311 11.547C25.0068 12.0173 24.1031 13.213 23.3742 13.817C23.3742 14.1085 23.2492 15.1915 23.3742 15.7538C23.5871 16.7122 24.7695 18.357 25.5817 19.0442C26.3939 19.7315 28.3515 20.1272 28.9138 19.7107C29.2678 20.0231 31.4337 21.4184 32.4542 22.8137C33.4747 24.209 33.308 24.8755 33.2664 25.7085C33.1782 26.1701 32.8632 27.0873 32.4542 27.6165C32.0452 28.1458 31.7217 28.3496 31.2744 28.9475C30.7986 29.5838 31.2744 33.1535 34.6062 31.829C33.6903 30.2649 36.5712 28.5803 35.0608 27.1061C33.603 25.4608 35.5364 22.9178 35.6197 21.6891C35.703 20.4604 35.0366 19.669 34.6825 19.2109C34.3285 18.7527 32.6 17.4407 31.4337 17.1075C31.163 14.9624 28.9763 14.3793 28.3515 14.1085C27.7267 13.8378 27.6643 13.3379 27.7059 13.0048C27.7476 12.6717 28.3515 12.026 28.5598 11.547C28.768 11.068 28.8722 10.0892 28.5598 9.46427C29.8926 8.52699 29.726 7.19439 29.6427 6.71539C29.5594 6.2364 29.0179 5.32007 28.5598 4.84107C28.3588 3.59487 27.5184 2.32021 26.1816 1.21724C24.6654 -0.0338392 20.911 -0.687222 20.2086 1.09222C19.8338 0.967193 19.1465 0.946508 18.6675 1.21724C18.1886 1.48798 17.0223 2.86251 16.5641 3.63306C16.106 4.40361 16.0643 5.15334 15.9185 5.92389C15.7728 6.69445 14.9814 6.98601 14.6065 7.00683C14.2316 7.02766 13.3361 7.00683 12.9613 7.73573C12.5864 8.46464 13.1071 9.04776 13.3361 9.46427C13.5652 9.88079 13.5444 10.3181 13.4403 10.5472C13.3361 10.7763 12.4406 11.2761 12.1907 11.6926C11.9408 12.1091 12.1074 13.0671 11.9825 13.3379C11.8575 13.6086 11.8159 14.5041 11.9825 14.8581C12.1491 15.2122 13.232 15.6287 13.1071 15.9203C12.9821 16.2118 12.4823 16.9616 12.9613 17.6072C13.4611 17.024 15.0439 16.7325 16.7724 16.3368C18.5009 15.9411 18.251 14.9623 18.1052 14.2334C18.6675 14.2125 18.7508 13.2754 18.6675 12.7756C18.5842 12.2758 17.9386 11.5885 17.5429 11.2761C17.8345 10.0057 19.4173 8.36051 19.7505 7.61078C20.0837 6.86105 20.292 4.90349 20.3128 4.52863Z" fill="#696F7A"/>
    <path d="M26.7965 27.1416C27.1918 26.0468 27.283 24.1617 26.7965 23.0366C27.6236 24.399 27.435 26.5641 27.283 27.3547C27.0397 27.3547 27.0701 27.1416 26.7965 27.1416Z" fill="#696F7A"/>
    <path d="M18.0568 15.4028C18.3941 15.6152 18.6814 16.0026 18.9187 16.2899C19.3913 16.8618 20.6675 17.8137 20.9673 18.0136C21.2671 18.2135 23.1827 19.5875 24.0278 19.2253C24.7273 18.9255 24.8148 18.1385 24.9522 17.7138" stroke="#696F7A" stroke-width="0.355676"/>
    <path d="M20.2054 17.4517C20.73 17.8389 22.5646 18.6999 23.5157 18.5752C24.2776 18.4753 24.5025 18.0005 24.7274 17.6632" stroke="#696F7A" stroke-width="0.355676"/>
  </g>
  <defs>
    <clipPath id="clip0_2006_194">
      <rect width="36" height="36" fill="white"/>
    </clipPath>
  </defs>
</svg>