<svg xmlns="http://www.w3.org/2000/svg" width="110" height="110" viewBox="0 0 110 110" fill="none">
  <path d="M0 55C0 24.6243 24.6243 0 55 0C85.3757 0 110 24.6243 110 55C110 85.3757 85.3757 110 55 110C24.6243 110 0 85.3757 0 55Z" fill="white"/>
  <g filter="url(#filter0_i_4035_104139)">
    <path fill-rule="evenodd" clip-rule="evenodd" d="M27.2127 22.7153C20.9535 27.0685 10.3928 38.0529 8.51501 54.2337C6.06343 75.3592 20.7729 99.4571 46.3545 103.385C66.8198 106.527 82.3109 94.5738 87.4983 88.2043C99.01 72.9175 97.7309 60.2848 97.7309 60.2848C97.7309 60.2848 96.5584 66.7604 92.0816 70.5821C86.5846 75.2749 82.7017 75.3592 81.849 75.3592C79.5395 73.4838 73.5989 68.6925 67.8857 65.805C60.7441 62.1956 50.1917 56.1446 50.5115 50.1998C50.8341 44.2033 56.5871 41.6011 66.7132 42.3442C67.033 42.3676 64.5814 46.8026 62.1298 48.8197C66.429 49.3859 76.2637 50.943 79.9304 53.9154C83.5971 56.8878 82.7372 59.4002 81.849 60.2848C82.9504 60.3556 85.7289 60.1362 88.0312 58.6925C90.3335 57.2487 91.4776 55.5431 91.7619 54.8708C90.8381 55.26 88.7987 55.7201 88.0312 54.4462C87.2638 53.1723 87.4272 51.9338 87.6048 51.4737C84.4071 51.0845 78.3102 49.5841 79.504 46.6966C80.9963 43.0873 85.2599 42.9811 86.6455 43.4057C88.0312 43.8304 90.696 44.892 91.0157 50.6245C91.028 50.8438 91.3137 50.6318 91.8062 50.2665C92.9475 49.4199 95.1993 47.7495 97.7309 48.7136C99.5429 49.4037 99.2587 53.3138 97.7309 54.4462C99.5429 54.0923 104.233 51.686 105.405 45.9535C105.492 45.5296 105.076 45.478 104.251 45.376C102.851 45.2027 100.273 44.8836 96.9848 42.3442C92.8064 39.117 91.6197 38.1686 91.5487 38.0979L91.7619 34.17C91.328 33.8937 90.8607 33.5972 90.3688 33.2851C86.3885 30.76 80.798 27.2134 78.3315 25.0404C75.8009 22.811 70.4438 16.4416 68.9516 3.91503C68.6652 1.51112 67.6725 17.1848 71.0205 23.7666C71.6774 25.058 57.5901 12.7261 55.7781 7.20592C55.7093 6.99639 56.9069 15.0616 62.4496 22.3865C63.0004 23.1144 62.0893 22.9955 60.1669 22.7448C56.2017 22.2276 47.9341 21.1493 39.3195 25.7835C24.7167 33.6392 23.5442 47.8644 24.7167 54.4462C25.5677 59.2233 27.2749 65.9112 36.1218 74.6161C38.0053 76.4694 32.6044 81.3041 23.4376 75.3592C18.1081 71.9029 12.2457 66.3357 13.3116 51.4737C14.4387 35.7572 24.0384 25.2296 27.2127 22.7153ZM80.7831 32.896L88.0312 36.2931L85.3665 37.8854C84.8335 37.1423 83.5971 35.4863 82.9149 34.8069C82.2327 34.1275 81.2094 33.2499 80.7831 32.896Z" fill="url(#paint0_linear_4035_104139)"/>
  </g>
  <mask id="mask0_4035_104139" style="mask-type:alpha" maskUnits="userSpaceOnUse" x="8" y="3" width="98" height="101">
    <path fill-rule="evenodd" clip-rule="evenodd" d="M27.2127 22.7153C20.9535 27.0685 10.3928 38.0529 8.51501 54.2337C6.06343 75.3592 20.7729 99.4571 46.3545 103.385C66.8198 106.527 82.3109 94.5738 87.4983 88.2043C99.01 72.9175 97.7309 60.2848 97.7309 60.2848C97.7309 60.2848 96.5584 66.7604 92.0816 70.5821C86.5846 75.2749 82.7017 75.3592 81.849 75.3592C79.5395 73.4838 73.5989 68.6925 67.8857 65.805C60.7441 62.1956 50.1917 56.1446 50.5115 50.1998C50.8341 44.2033 56.5871 41.6011 66.7132 42.3442C67.033 42.3676 64.5814 46.8026 62.1298 48.8197C66.429 49.3859 76.2637 50.943 79.9304 53.9154C83.5971 56.8878 82.7372 59.4002 81.849 60.2848C82.9504 60.3556 85.7289 60.1362 88.0312 58.6925C90.3335 57.2487 91.4776 55.5431 91.7619 54.8708C90.8381 55.26 88.7987 55.7201 88.0312 54.4462C87.2638 53.1723 87.4272 51.9338 87.6048 51.4737C84.4071 51.0845 78.3102 49.5841 79.504 46.6966C80.9963 43.0873 85.2599 42.9811 86.6455 43.4057C88.0312 43.8304 90.696 44.892 91.0157 50.6245C91.028 50.8438 91.3137 50.6318 91.8062 50.2665C92.9475 49.4199 95.1993 47.7495 97.7309 48.7136C99.5429 49.4037 99.2587 53.3138 97.7309 54.4462C99.5429 54.0923 104.233 51.686 105.405 45.9535C105.492 45.5296 105.076 45.478 104.251 45.376C102.851 45.2027 100.273 44.8836 96.9848 42.3442C92.8064 39.117 91.6197 38.1686 91.5487 38.0979L91.7619 34.17C91.328 33.8937 90.8607 33.5972 90.3688 33.2851C86.3885 30.76 80.798 27.2134 78.3315 25.0404C75.8009 22.811 70.4438 16.4416 68.9516 3.91503C68.6652 1.51112 67.6725 17.1848 71.0205 23.7666C71.6774 25.058 57.5901 12.7261 55.7781 7.20592C55.7093 6.99639 56.9069 15.0616 62.4496 22.3865C63.0004 23.1144 62.0893 22.9955 60.1669 22.7448C56.2017 22.2276 47.9341 21.1493 39.3195 25.7835C24.7167 33.6392 23.5442 47.8644 24.7167 54.4462C25.5677 59.2233 27.2749 65.9112 36.1218 74.6161C38.0053 76.4694 32.6044 81.3041 23.4376 75.3592C18.1081 71.9029 12.2457 66.3357 13.3116 51.4737C14.4387 35.7572 24.0384 25.2296 27.2127 22.7153ZM80.7831 32.896L88.0312 36.2931L85.3665 37.8854C84.8335 37.1423 83.5971 35.4863 82.9149 34.8069C82.2327 34.1275 81.2094 33.2499 80.7831 32.896Z" fill="url(#paint1_linear_4035_104139)"/>
  </mask>
  <g mask="url(#mask0_4035_104139)">
    <path d="M53.4702 40.7506C58.3388 39.9819 64.0941 41.4209 66.9165 42.1666C65.0832 43.9999 51.1418 44.4792 51.0359 49.5926C50.949 53.7943 55.9611 59.1424 63.2073 62.6957C75.5904 68.7679 80.459 73.5617 82.1524 75.0531C89.0042 81.0877 88.0286 87.5368 88.0286 87.5368C88.0286 87.5368 85.2617 91.7758 79.3348 95.7192C73.4078 99.6626 68.2915 101.292 68.2915 101.292C68.2915 101.292 79.6122 92.0979 65.6416 80.8057C59.2744 75.6593 40.7696 62.8022 40.9813 53.5342C41.1735 45.1206 48.0725 41.6029 53.4702 40.7506Z" fill="url(#paint2_linear_4035_104139)"/>
    <path d="M86.3864 80.3929C84.7913 77.4583 82.4966 75.913 81.583 75.1666C82.7889 75.1666 88.2502 74.3153 93.0739 69.6238C96.015 66.7634 97.3066 62.2667 97.7451 59.921C97.8547 62.2667 98.2265 66.2118 96.4725 71.6497C94.6385 77.3352 91.5366 83.5916 88.0284 87.5367C88.0284 85.4043 87.6886 82.7886 86.3864 80.3929Z" fill="url(#paint3_linear_4035_104139)"/>
    <g filter="url(#filter1_i_4035_104139)">
      <path d="M46.7881 83.8169C44.1408 81.3327 38.2516 76.6504 35.75 74.25C35.4284 81.4512 14.3201 77.357 13.4453 55.7534C12.6948 37.2209 22.7727 26.8427 28.1333 22.0771C21.0573 26.4191 8.94238 39.9743 8.29912 55.7534C7.72107 69.9325 12.266 81.2753 20.8429 89.8532C29.9493 98.9606 40.912 102.684 46.0939 103.39C48.0237 102.861 51.1248 99.2783 52.0415 95.2541C53.1753 90.2768 48.9324 85.829 46.7881 83.8169Z" fill="url(#paint4_linear_4035_104139)"/>
    </g>
  </g>
  <defs>
    <filter id="filter0_i_4035_104139" x="8.25" y="1.66663" width="97.167" height="102.235" filterUnits="userSpaceOnUse" color-interpolation-filters="sRGB">
      <feFlood flood-opacity="0" result="BackgroundImageFix"/>
      <feBlend mode="normal" in="SourceGraphic" in2="BackgroundImageFix" result="shape"/>
      <feColorMatrix in="SourceAlpha" type="matrix" values="0 0 0 0 0 0 0 0 0 0 0 0 0 0 0 0 0 0 127 0" result="hardAlpha"/>
      <feOffset dy="-2"/>
      <feGaussianBlur stdDeviation="2"/>
      <feComposite in2="hardAlpha" operator="arithmetic" k2="-1" k3="1"/>
      <feColorMatrix type="matrix" values="0 0 0 0 0.956863 0 0 0 0 0.996078 0 0 0 0 1 0 0 0 1 0"/>
      <feBlend mode="normal" in2="shape" result="effect1_innerShadow_4035_104139"/>
    </filter>
    <filter id="filter1_i_4035_104139" x="8.25" y="20.0771" width="43.9805" height="83.3132" filterUnits="userSpaceOnUse" color-interpolation-filters="sRGB">
      <feFlood flood-opacity="0" result="BackgroundImageFix"/>
      <feBlend mode="normal" in="SourceGraphic" in2="BackgroundImageFix" result="shape"/>
      <feColorMatrix in="SourceAlpha" type="matrix" values="0 0 0 0 0 0 0 0 0 0 0 0 0 0 0 0 0 0 127 0" result="hardAlpha"/>
      <feOffset dy="-2"/>
      <feGaussianBlur stdDeviation="2"/>
      <feComposite in2="hardAlpha" operator="arithmetic" k2="-1" k3="1"/>
      <feColorMatrix type="matrix" values="0 0 0 0 0.956863 0 0 0 0 0.996078 0 0 0 0 1 0 0 0 1 0"/>
      <feBlend mode="normal" in2="shape" result="effect1_innerShadow_4035_104139"/>
    </filter>
    <linearGradient id="paint0_linear_4035_104139" x1="64.3077" y1="12.6752" x2="64.3077" y2="94.8931" gradientUnits="userSpaceOnUse">
      <stop stop-color="#49C755"/>
      <stop offset="0.985" stop-color="#0F9957"/>
    </linearGradient>
    <linearGradient id="paint1_linear_4035_104139" x1="8.25" y1="53.7842" x2="105.417" y2="53.7842" gradientUnits="userSpaceOnUse">
      <stop stop-color="#21D9CC"/>
      <stop offset="1" stop-color="#BED921"/>
    </linearGradient>
    <linearGradient id="paint2_linear_4035_104139" x1="64.4833" y1="40.4526" x2="64.4833" y2="100.833" gradientUnits="userSpaceOnUse">
      <stop stop-color="#3BC849"/>
      <stop offset="1" stop-color="#93EA8B"/>
    </linearGradient>
    <linearGradient id="paint3_linear_4035_104139" x1="98.3362" y1="61.3071" x2="88.0914" y2="86.5663" gradientUnits="userSpaceOnUse">
      <stop stop-color="#8BFF90"/>
      <stop offset="1" stop-color="#72E284"/>
    </linearGradient>
    <linearGradient id="paint4_linear_4035_104139" x1="30.2404" y1="22.0771" x2="30.2404" y2="102.879" gradientUnits="userSpaceOnUse">
      <stop offset="0.111391" stop-color="#8DFF98"/>
      <stop offset="1" stop-color="#38B744"/>
    </linearGradient>
  </defs>
</svg>