<svg xmlns="http://www.w3.org/2000/svg" width="36" height="36" viewBox="0 0 36 36" fill="none">
  <path fill-rule="evenodd" clip-rule="evenodd" d="M4.40039 9.27642C4.98102 8.36652 6.42764 7.40038 8.23041 6.55871L8.25111 6.55332C8.56575 6.4725 8.7793 6.4683 8.90228 6.50447C9.22015 6.59797 9.56342 6.75204 9.94762 6.9245C10.1039 6.99467 10.267 7.06788 10.4379 7.14128C10.9863 7.37681 11.6227 7.61639 12.215 7.59897C12.5235 7.58989 12.9265 7.49308 13.3473 7.34667C13.777 7.19716 14.2578 6.98448 14.73 6.72048C15.6546 6.20357 16.6296 5.44341 17.0585 4.50328C17.0921 4.42954 17.1238 4.35601 17.1537 4.28275C18.6832 4.3382 20.2373 4.68652 20.7898 4.97551C23.5742 3.84707 26.7464 3.91825 27.839 4.05924C28.9317 4.20022 29.4604 4.5878 29.0022 4.97551C28.9733 4.99992 28.94 5.02782 28.9028 5.05898C28.3489 5.52288 26.9313 6.71014 26.5349 7.8661C28.5625 8.91258 29.5921 12.0763 29.6822 15.0383C30.8675 15.4042 31.6331 16.3727 31.5985 17.8072C31.5628 19.2887 29.9514 20.2377 29.7022 20.2377C29.6577 20.2377 29.6867 20.1367 29.7311 19.9817C29.7929 19.7664 29.8846 19.4467 29.8509 19.1483C29.7972 18.6725 29.6474 18.3723 29.3868 18.1773C29.2406 18.7721 29.0416 19.305 28.7907 19.7441C27.0989 22.7048 23.8914 24.9254 22.3054 25.9475C22.6672 26.1538 23.4503 27.0401 23.6265 27.6041C23.8994 28.4773 23.2664 29.3606 23.152 29.1949C22.7036 28.545 21.4039 27.8677 20.3668 27.7803C20.5078 30.0713 22.0234 31.0273 22.8996 31.2368C23.4283 30.4261 26.1472 29.1902 28.403 28.6967C26.3234 30.318 25.5128 32.4328 25.548 32.6443C25.5833 32.8558 25.83 34.1951 26.9579 35.464C26.0062 35.323 22.6257 33.9282 22.126 32.4294C18.8524 32.4976 16.3734 31.2493 15.705 30.9127L15.6438 30.882C15.0799 30.6 13.1765 29.1902 12.5069 27.6041C11.9376 27.9065 11.5344 28.4343 11.2255 28.8386C10.9223 29.2355 10.7099 29.5134 10.5206 29.3428C9.3409 28.2798 10.5206 25.5575 11.8372 24.9253C11.7314 23.7975 11.8372 19.8146 13.3528 16.9949C11.8051 17.2304 10.9319 16.3418 11.3156 15.8621C11.3109 15.508 11.3997 15.0698 11.6235 14.9855C11.8759 14.8904 12.4737 15.141 12.7004 15.8157C12.7288 15.8121 12.7571 15.8083 12.7854 15.8042C12.683 15.2466 12.835 14.6044 13.0683 14.4295C13.2983 14.257 14.0857 14.6096 14.4792 15.0847C14.462 14.3548 14.7649 13.6871 14.9643 13.5278C15.1135 13.4085 15.8075 13.588 16.3116 13.7892C15.9579 13.1264 15.8386 12.4232 16.0277 12.1747C16.1266 12.0446 16.5072 12.0717 16.8986 12.1503C16.7531 11.5947 16.802 11.0902 16.9177 10.9046C17.0068 10.7616 17.4388 10.7351 17.8388 10.7698C17.8682 10.4636 17.87 10.1673 17.8431 9.89498C17.8139 10.1429 17.753 10.3434 17.6459 10.4069C17.3613 10.5754 16.934 10.207 16.6502 9.87813C16.6368 9.90031 16.6232 9.92254 16.6096 9.94481C16.8629 10.4299 16.6962 11.4616 16.4782 11.7013C16.2935 11.9045 15.8431 11.7388 15.516 11.5343C15.6792 11.9739 15.6217 12.5695 15.4381 12.7429C15.2454 12.9249 14.4196 12.9185 13.9402 12.5501C13.8688 12.5918 13.7959 12.6336 13.7218 12.6753C13.762 13.0925 13.7185 13.8439 13.5421 13.9226C13.3473 14.0096 12.5144 13.9334 12.0671 13.4868C12.0041 13.513 11.9409 13.5388 11.8777 13.564C11.9077 13.9799 11.8311 14.7039 11.6229 14.846C11.3766 15.0141 10.5648 14.5303 9.99906 14.1C9.74117 14.1366 9.49443 14.1516 9.26426 14.1403C7.11429 14.0347 4.50594 11.4966 4.40039 9.27642Z" fill="#696F7A"/>
  <path fill-rule="evenodd" clip-rule="evenodd" d="M11.2869 17.018C11.6122 17.267 12.0709 17.4382 12.6197 17.4763C12.3861 18.0073 12.1939 18.5621 12.0361 19.1195C11.6587 19.3338 11.4169 19.6755 11.2476 20.2202C11.0414 20.8835 11.1817 21.2596 11.2423 21.4218C11.267 21.488 11.2784 21.5186 11.2476 21.5186C10.9984 21.5186 9.38697 20.7349 9.35125 19.2535C9.32308 18.085 10.0837 17.2206 11.1099 16.8611C11.1649 16.9177 11.2244 16.9701 11.2869 17.018Z" fill="#696F7A"/>
  <path d="M6.10464 6.92298C6.10461 6.92299 6.10439 6.92245 6.10405 6.92131L6.10464 6.92298ZM7.91558 5.24669C7.5612 5.33771 7.19897 5.47594 6.86212 5.62381C7.53623 4.9746 8.46213 4.36567 9.43854 3.83373C10.6742 3.16056 11.8864 2.66519 12.5417 2.39812C13.2441 2.11191 14.2104 1.7628 15.0473 1.57165C15.4709 1.47492 15.8125 1.43027 16.0502 1.43557C16.0831 1.43631 16.111 1.43787 16.1343 1.43985C16.1408 1.46108 16.1479 1.48586 16.1551 1.51447C16.1926 1.66307 16.2232 1.86927 16.2274 2.1211C16.236 2.62371 16.1392 3.26733 15.8305 3.94395C15.5835 4.48559 14.9204 5.06849 14.0715 5.54306C13.667 5.76924 13.2581 5.94936 12.904 6.07257C12.532 6.202 12.281 6.24738 12.1757 6.25048C11.9158 6.25812 11.5313 6.14243 10.971 5.90178C10.8529 5.85105 10.7232 5.7928 10.5865 5.73142C10.1736 5.54593 9.69694 5.33186 9.28351 5.21026C8.80715 5.07016 8.30476 5.14673 7.91558 5.24669ZM16.2363 1.45689C16.2362 1.45698 16.2339 1.45632 16.2299 1.45461C16.2344 1.45593 16.2365 1.45679 16.2363 1.45689Z" fill="#696F7A" stroke="#696F7A" stroke-width="1.8"/>
</svg>