<svg xmlns="http://www.w3.org/2000/svg" width="40" height="40" viewBox="0 0 40 40" fill="none">
  <rect width="40" height="40" rx="10" fill="url(#paint0_linear_10045_8753)"/>
  <mask id="mask0_10045_8753" style="mask-type:alpha" maskUnits="userSpaceOnUse" x="5" y="12" width="31" height="16">
    <path fill-rule="evenodd" clip-rule="evenodd" d="M22.0496 12C22.0496 12.9533 21.2806 13.7252 20.3321 13.7252C19.3855 13.7252 18.6165 12.9533 18.6165 12H5.33398V13.4062C5.8668 13.4062 6.34293 13.6502 6.65846 14.0329C6.90408 14.331 7.05146 14.7137 7.05146 15.1314C7.05146 15.4514 6.96454 15.7515 6.81339 16.0078C6.51486 16.5158 5.96316 16.8567 5.33398 16.8567V18.2752C6.28247 18.2752 7.05146 19.0472 7.05146 20.0005C7.05146 20.9538 6.28247 21.7257 5.33398 21.7257V23.1433C5.91403 23.1433 6.42606 23.432 6.73592 23.8725C6.93431 24.1536 7.05146 24.4973 7.05146 24.8686C7.05146 25.8219 6.28247 26.5938 5.33398 26.5938V28H18.6165C18.6165 27.0467 19.3855 26.2748 20.3321 26.2748C21.2806 26.2748 22.0496 27.0467 22.0496 28H35.334V26.5938C34.3874 26.5938 33.6184 25.8219 33.6184 24.8686C33.6184 23.9153 34.3874 23.1433 35.334 23.1433V21.7257C34.8767 21.7257 34.4592 21.5453 34.1512 21.251C33.9642 21.0725 33.8187 20.8522 33.7261 20.6044C33.6562 20.4164 33.6184 20.2132 33.6184 20.0005C33.6184 19.0472 34.3874 18.2752 35.334 18.2752V16.8567C34.3874 16.8567 33.6184 16.0847 33.6184 15.1314C33.6184 14.7099 33.7696 14.3244 34.019 14.0243C34.3326 13.6464 34.805 13.4062 35.334 13.4062V12H22.0496Z" fill="url(#paint1_linear_10045_8753)"/>
  </mask>
  <g mask="url(#mask0_10045_8753)">
    <path fill-rule="evenodd" clip-rule="evenodd" d="M22.0496 12C22.0496 12.9533 21.2806 13.7252 20.3321 13.7252C19.3855 13.7252 18.6165 12.9533 18.6165 12H5.33398V13.4062C5.8668 13.4062 6.34293 13.6502 6.65846 14.0329C6.90408 14.331 7.05146 14.7137 7.05146 15.1314C7.05146 15.4514 6.96454 15.7515 6.81339 16.0078C6.51486 16.5158 5.96316 16.8567 5.33398 16.8567V18.2752C6.28247 18.2752 7.05146 19.0472 7.05146 20.0005C7.05146 20.9538 6.28247 21.7257 5.33398 21.7257V23.1433C5.91403 23.1433 6.42606 23.432 6.73592 23.8725C6.93431 24.1536 7.05146 24.4973 7.05146 24.8686C7.05146 25.8219 6.28247 26.5938 5.33398 26.5938V28H18.6165C18.6165 27.0467 19.3855 26.2748 20.3321 26.2748C21.2806 26.2748 22.0496 27.0467 22.0496 28H35.334V26.5938C34.3874 26.5938 33.6184 25.8219 33.6184 24.8686C33.6184 23.9153 34.3874 23.1433 35.334 23.1433V21.7257C34.8767 21.7257 34.4592 21.5453 34.1512 21.251C33.9642 21.0725 33.8187 20.8522 33.7261 20.6044C33.6562 20.4164 33.6184 20.2132 33.6184 20.0005C33.6184 19.0472 34.3874 18.2752 35.334 18.2752V16.8567C34.3874 16.8567 33.6184 16.0847 33.6184 15.1314C33.6184 14.7099 33.7696 14.3244 34.019 14.0243C34.3326 13.6464 34.805 13.4062 35.334 13.4062V12H22.0496Z" fill="#05012B"/>
    <path opacity="0.65" d="M20.2534 15.1152V24.8884" stroke="#D4DFEF" stroke-width="0.972286" stroke-dasharray="0.97 0.97"/>
    <path fill-rule="evenodd" clip-rule="evenodd" d="M9.2915 22H15.1638V22.9723H9.2915V22Z" fill="url(#paint2_linear_10045_8753)"/>
    <path opacity="0.8" d="M12.2489 19.8802C12.2489 19.3026 12.5217 19.0226 12.9164 18.8651V18.8418C12.5681 18.6726 12.3708 18.4042 12.3708 17.92C12.3708 17.2375 12.8351 16.835 13.6999 16.835C14.5648 16.835 15.0291 17.2375 15.0291 17.92C15.0291 18.4042 14.8376 18.6784 14.4487 18.8418V18.8651C14.884 19.0109 15.1568 19.2968 15.1568 19.886C15.1568 20.6327 14.6344 21.0119 13.6999 21.0119C12.7713 21.0119 12.2489 20.6327 12.2489 19.8802ZM13.6999 20.3819C14.1875 20.3819 14.4313 20.1952 14.4313 19.816C14.4313 19.3785 14.1875 19.1626 13.6999 19.1626C13.2298 19.1626 12.9744 19.3785 12.9744 19.816C12.9744 20.1952 13.2182 20.3819 13.6999 20.3819ZM13.6999 18.5734C14.1411 18.5734 14.3384 18.3459 14.3384 17.99C14.3384 17.64 14.1178 17.4417 13.6999 17.4417C13.2762 17.4417 13.0673 17.6225 13.0673 17.99C13.0673 18.3576 13.2588 18.5734 13.6999 18.5734Z" fill="url(#paint3_linear_10045_8753)"/>
    <path opacity="0.8" d="M8.84799 18.9254C8.84799 17.3036 9.38198 16.8428 10.2933 16.8428C11.2103 16.8428 11.7385 17.3036 11.7385 18.9254C11.7385 20.553 11.2103 21.008 10.2933 21.008C9.37618 21.008 8.84799 20.553 8.84799 18.9254ZM10.2933 20.3313C10.7808 20.3313 10.9607 20.0455 10.9607 18.9254C10.9607 17.8053 10.7808 17.5195 10.2933 17.5195C9.8173 17.5195 9.63737 17.8053 9.63737 18.9254C9.63737 20.0513 9.8115 20.3313 10.2933 20.3313Z" fill="url(#paint4_linear_10045_8753)"/>
    <path opacity="0.8" d="M27.9107 20.8142C27.9107 18.6596 28.8936 17.415 30.9909 17.415L30.9831 18.3173C29.7836 18.3251 29.1025 18.8618 28.9865 19.7407H29.0097C29.2573 19.5307 29.6675 19.3985 30.0699 19.3985C31.1224 19.3985 31.7029 19.9974 31.7029 21.1253C31.7029 22.2687 31.0837 22.9687 29.8223 22.9687C28.5453 22.9687 27.9107 22.2531 27.9107 20.8142ZM29.7913 22.1365C30.4027 22.1365 30.7355 21.7864 30.7355 21.1331C30.7355 20.5108 30.4104 20.1841 29.861 20.1841C29.2264 20.1841 28.9091 20.4797 28.9091 21.0708C28.9091 21.7631 29.2032 22.1365 29.7913 22.1365Z" fill="url(#paint5_linear_10045_8753)"/>
    <path opacity="0.8" d="M25.0617 18.4479L23.7461 18.7046V17.8179L25.3481 17.4912H26.122V22.8893H25.0617V18.4479Z" fill="url(#paint6_linear_10045_8753)"/>
  </g>
  <defs>
    <linearGradient id="paint0_linear_10045_8753" x1="20" y1="0" x2="20" y2="40" gradientUnits="userSpaceOnUse">
      <stop stop-color="#ECF5FE"/>
      <stop offset="1" stop-color="#A5B6D4"/>
    </linearGradient>
    <linearGradient id="paint1_linear_10045_8753" x1="5.33398" y1="20" x2="35.334" y2="20" gradientUnits="userSpaceOnUse">
      <stop stop-color="#FF4572"/>
      <stop offset="1" stop-color="#FE5253"/>
    </linearGradient>
    <linearGradient id="paint2_linear_10045_8753" x1="12.2276" y1="22" x2="12.2276" y2="22.9723" gradientUnits="userSpaceOnUse">
      <stop stop-color="#ECF5FE"/>
      <stop offset="1" stop-color="#A5B6D4"/>
    </linearGradient>
    <linearGradient id="paint3_linear_10045_8753" x1="13.7028" y1="16.835" x2="13.7028" y2="21.0119" gradientUnits="userSpaceOnUse">
      <stop stop-color="#ECF5FE"/>
      <stop offset="1" stop-color="#A5B6D4"/>
    </linearGradient>
    <linearGradient id="paint4_linear_10045_8753" x1="10.2933" y1="16.8428" x2="10.2933" y2="21.008" gradientUnits="userSpaceOnUse">
      <stop stop-color="#ECF5FE"/>
      <stop offset="1" stop-color="#A5B6D4"/>
    </linearGradient>
    <linearGradient id="paint5_linear_10045_8753" x1="29.8068" y1="17.415" x2="29.8068" y2="22.9687" gradientUnits="userSpaceOnUse">
      <stop stop-color="#ECF5FE"/>
      <stop offset="1" stop-color="#A5B6D4"/>
    </linearGradient>
    <linearGradient id="paint6_linear_10045_8753" x1="24.934" y1="17.4912" x2="24.934" y2="22.8893" gradientUnits="userSpaceOnUse">
      <stop stop-color="#ECF5FE"/>
      <stop offset="1" stop-color="#A5B6D4"/>
    </linearGradient>
  </defs>
</svg>