<svg width="40" height="40" viewBox="0 0 40 40" fill="none" xmlns="http://www.w3.org/2000/svg">
<rect width="40" height="40" rx="10" fill="url(#paint0_linear_10045_9187)"/>
<rect x="15.9995" y="7.99902" width="8" height="24" rx="1.33333" fill="#05012B"/>
<rect x="5.99951" y="15.333" width="8" height="16.6667" rx="1.33333" fill="#4E5274"/>
<rect x="25.9995" y="17.332" width="8" height="14.6667" rx="1.33333" fill="#4E5274"/>
<path d="M18.3312 14.4532V12.5482H21.5199V20.1162H19.3975V14.4532H18.3312Z" fill="url(#paint1_linear_10045_9187)"/>
<path d="M7.6226 23.6631C8.18051 23.2259 8.63776 22.8492 8.99437 22.5329C9.35097 22.2165 9.65005 21.8916 9.89162 21.558C10.1332 21.2186 10.254 20.8965 10.254 20.5917C10.254 20.4076 10.2108 20.2639 10.1246 20.1603C10.044 20.0568 9.92325 20.005 9.76221 20.005C9.59541 20.005 9.466 20.0769 9.37397 20.2207C9.28195 20.3588 9.23881 20.5629 9.24456 20.8333H7.60535C7.6226 20.3214 7.73476 19.8986 7.94182 19.565C8.14888 19.2257 8.4192 18.9784 8.7528 18.8231C9.08639 18.662 9.45737 18.5815 9.86574 18.5815C10.5732 18.5815 11.0995 18.7569 11.4446 19.1078C11.7897 19.4586 11.9622 19.913 11.9622 20.4709C11.9622 21.0691 11.7609 21.6299 11.3583 22.1533C10.9614 22.6767 10.4639 23.1454 9.86574 23.5595H12.0226V24.9313H7.6226V23.6631Z" fill="url(#paint2_linear_10045_9187)"/>
<path d="M28.1141 22.3183C28.1372 21.6683 28.3385 21.1708 28.7181 20.8257C29.0977 20.4749 29.6268 20.2994 30.3055 20.2994C30.7484 20.2994 31.1251 20.3771 31.4357 20.5324C31.7521 20.6819 31.9907 20.889 32.1518 21.1536C32.3128 21.4124 32.3934 21.7057 32.3934 22.0336C32.3934 22.4247 32.2985 22.7381 32.1087 22.9739C31.9189 23.204 31.7032 23.3593 31.4616 23.4398V23.4743C32.1575 23.7332 32.5055 24.2278 32.5055 24.9583C32.5055 25.3206 32.4221 25.6398 32.2553 25.9159C32.0885 26.192 31.847 26.4077 31.5306 26.563C31.2143 26.7183 30.8375 26.7959 30.4004 26.7959C29.6815 26.7959 29.1121 26.6234 28.6922 26.2783C28.2781 25.9274 28.0624 25.3925 28.0451 24.6736H29.693C29.6815 24.9036 29.7304 25.0819 29.8396 25.2085C29.9489 25.335 30.1128 25.3983 30.3314 25.3983C30.4982 25.3983 30.6276 25.3465 30.7196 25.243C30.8174 25.1394 30.8663 25.0014 30.8663 24.8288C30.8663 24.6103 30.7944 24.4492 30.6506 24.3457C30.5126 24.2422 30.2854 24.1904 29.969 24.1904H29.6671V22.8187H29.9604C30.179 22.8244 30.363 22.7899 30.5126 22.7151C30.6679 22.6346 30.7455 22.4764 30.7455 22.2406C30.7455 22.0623 30.7024 21.93 30.6161 21.8437C30.5298 21.7517 30.4119 21.7057 30.2624 21.7057C30.0956 21.7057 29.9719 21.7661 29.8914 21.8869C29.8166 22.0019 29.7735 22.1457 29.762 22.3183H28.1141Z" fill="url(#paint3_linear_10045_9187)"/>
<defs>
<linearGradient id="paint0_linear_10045_9187" x1="20" y1="0" x2="20" y2="40" gradientUnits="userSpaceOnUse">
<stop stop-color="#ECF5FE"/>
<stop offset="1" stop-color="#A5B6D4"/>
</linearGradient>
<linearGradient id="paint1_linear_10045_9187" x1="20.1466" y1="8.11621" x2="20.1466" y2="24.1162" gradientUnits="userSpaceOnUse">
<stop stop-color="#ECF5FE"/>
<stop offset="1" stop-color="#A5B6D4"/>
</linearGradient>
<linearGradient id="paint2_linear_10045_9187" x1="9.79385" y1="15.0176" x2="9.79385" y2="28.0176" gradientUnits="userSpaceOnUse">
<stop stop-color="#ECF5FE"/>
<stop offset="1" stop-color="#A5B6D4"/>
</linearGradient>
<linearGradient id="paint3_linear_10045_9187" x1="30.3329" y1="16.7441" x2="30.3329" y2="29.7441" gradientUnits="userSpaceOnUse">
<stop stop-color="#ECF5FE"/>
<stop offset="1" stop-color="#A5B6D4"/>
</linearGradient>
</defs>
</svg>
