<svg width="40" height="40" viewBox="0 0 40 40" fill="none" xmlns="http://www.w3.org/2000/svg">
<rect width="40" height="40" rx="10" fill="url(#paint0_linear_10002_11284)"/>
<circle cx="20.0002" cy="20" r="14" fill="#05012B"/>
<mask id="mask0_10002_11284" style="mask-type:alpha" maskUnits="userSpaceOnUse" x="6" y="6" width="29" height="28">
<circle cx="20.0002" cy="20" r="14" fill="#05012B"/>
</mask>
<g mask="url(#mask0_10002_11284)">
<path opacity="0.4" d="M20.0087 -6.38416C24.0234 -6.38416 27.276 -3.12962 27.2737 0.885067C27.2713 4.89975 24.0149 8.1543 20.0002 8.1543C15.9855 8.1543 12.7329 4.89975 12.7352 0.885067C12.7375 -3.12962 15.994 -6.38416 20.0087 -6.38416Z" fill="#BBCAE1"/>
<path opacity="0.4" d="M20.2694 44.3383C16.2547 44.3383 13.0021 41.0837 13.0044 37.069C13.0068 33.0543 16.2632 29.7998 20.2779 29.7998C24.2926 29.7998 27.5452 33.0543 27.5429 37.069C27.5405 41.0837 24.2841 44.3383 20.2694 44.3383Z" fill="#BBCAE1"/>
<path opacity="0.4" d="M-5.57703 18.6451C-5.57703 14.6305 -2.32249 11.3778 1.6922 11.3801C5.70688 11.3825 8.96143 14.6389 8.96143 18.6536C8.96143 22.6683 5.70688 25.921 1.6922 25.9186C-2.32249 25.9163 -5.57703 22.6598 -5.57703 18.6451Z" fill="#BBCAE1"/>
<path opacity="0.4" d="M45.5768 18.663C45.5768 22.6777 42.3222 25.9303 38.3076 25.928C34.2929 25.9256 31.0383 22.6692 31.0383 18.6545C31.0383 14.6398 34.2929 11.3872 38.3076 11.3895C42.3222 11.3918 45.5768 14.6483 45.5768 18.663Z" fill="#BBCAE1"/>
</g>
<path d="M20.001 28.4001C24.6402 28.4001 28.4008 24.6393 28.4005 20.0001C28.4003 15.3609 24.6393 11.6001 20.0001 11.6001C15.3609 11.6001 11.6003 15.3609 11.6005 20.0001C11.6008 24.6393 15.3618 28.4001 20.001 28.4001Z" fill="url(#paint1_linear_10002_11284)"/>
<path d="M20.095 25.1725C19.273 25.1781 18.538 25.0554 17.89 24.8046C17.2453 24.5537 16.7359 24.2108 16.3617 23.7758C15.9909 23.3408 15.8036 22.8482 15.7999 22.298C15.797 21.8771 15.8989 21.492 16.1053 21.1425C16.3151 20.7931 16.5982 20.5028 16.9546 20.2717C17.3109 20.0373 17.7093 19.8855 18.1497 19.8162L18.1491 19.7367C17.5685 19.6412 17.0895 19.3875 16.7121 18.9758C16.3381 18.5607 16.1492 18.0697 16.1454 17.503C16.1418 16.9694 16.3076 16.4943 16.6429 16.0777C16.9781 15.6578 17.4382 15.3266 18.0233 15.084C18.6083 14.8414 19.2753 14.7176 20.0243 14.7125C20.7734 14.7075 21.442 14.8239 22.0303 15.0619C22.6185 15.2966 23.0831 15.6216 23.424 16.0369C23.7648 16.4489 23.9371 16.9201 23.9406 17.4504C23.9445 18.0204 23.7589 18.5139 23.3839 18.9307C23.0088 19.3476 22.5366 19.6076 21.9672 19.7109L21.9678 19.7904C22.4057 19.8538 22.8044 20.0002 23.1639 20.2298C23.5234 20.4561 23.8104 20.7425 24.0249 21.0891C24.2393 21.4356 24.348 21.8194 24.3508 22.2403C24.3545 22.7905 24.1723 23.2856 23.804 23.7256C23.4391 24.1655 22.9343 24.5153 22.2898 24.7749C21.6485 25.0344 20.9169 25.167 20.095 25.1725ZM20.0821 23.2635C20.3439 23.2617 20.5755 23.2071 20.777 23.0997C20.9785 22.9923 21.1366 22.8454 21.2513 22.659C21.3694 22.4692 21.4276 22.2567 21.426 22.0214C21.4244 21.7861 21.3633 21.5777 21.2428 21.3962C21.1256 21.2147 20.9655 21.0733 20.7626 20.9719C20.5597 20.8672 20.3274 20.8157 20.0656 20.8175C19.807 20.8192 19.5754 20.8738 19.3706 20.9813C19.1691 21.0854 19.0094 21.229 18.8913 21.4121C18.7765 21.5952 18.7199 21.8044 18.7215 22.0397C18.7231 22.275 18.7825 22.4851 18.8998 22.6699C19.0203 22.8547 19.1821 23.0011 19.385 23.1091C19.5912 23.2138 19.8236 23.2652 20.0821 23.2635ZM20.0527 18.9085C20.2847 18.9069 20.4898 18.8574 20.6682 18.7601C20.8465 18.6628 20.9864 18.5293 21.0881 18.3595C21.1897 18.1898 21.2397 17.9989 21.2383 17.7868C21.2369 17.5747 21.1842 17.3878 21.0804 17.2261C20.9765 17.061 20.8348 16.9327 20.6552 16.8411C20.4756 16.7462 20.2698 16.6996 20.0378 16.7011C19.8091 16.7027 19.6039 16.7521 19.4223 16.8495C19.2439 16.9435 19.1039 17.0737 19.0023 17.2401C18.9007 17.4032 18.8506 17.5908 18.852 17.8029C18.8534 18.015 18.9061 18.2052 19.01 18.3736C19.1138 18.5386 19.2556 18.6702 19.4352 18.7684C19.6182 18.8633 19.824 18.91 20.0527 18.9085Z" fill="#05012B"/>
<defs>
<linearGradient id="paint0_linear_10002_11284" x1="20" y1="0" x2="20" y2="40" gradientUnits="userSpaceOnUse">
<stop stop-color="#ECF5FE"/>
<stop offset="1" stop-color="#A5B6D4"/>
</linearGradient>
<linearGradient id="paint1_linear_10002_11284" x1="20.0001" y1="11.6001" x2="20.0001" y2="28.4001" gradientUnits="userSpaceOnUse">
<stop stop-color="#ECF5FE"/>
<stop offset="1" stop-color="#A5B6D4"/>
</linearGradient>
</defs>
</svg>
