<svg width="199" height="41" viewBox="0 0 199 41" fill="none" xmlns="http://www.w3.org/2000/svg">
<g filter="url(#filter0_d_31_1459)">
<path d="M33.1361 10.3695C30.1445 7.51175 27.7928 9.16386 25.59 9.92294C24.7617 10.2136 23.8708 10.2653 23.0002 10.2653C22.1284 10.2653 21.241 10.2093 20.4104 9.92294C18.2076 9.16386 15.856 7.51175 12.8643 10.3695C9.82799 13.2867 8.72659 20.3417 8.90519 23.3035C9.0838 26.2803 11.9266 27.6794 14.4718 25.5361C16.897 23.5091 19.4884 19.5379 23.0002 19.5379C26.5217 19.5379 29.1026 23.4963 31.5287 25.5361C34.0738 27.6794 36.9167 26.2803 37.0953 23.3035C37.2739 20.3417 36.1725 13.2867 33.1361 10.3843V10.3695Z" fill="#1D2452"/>
</g>
<g filter="url(#filter1_iii_31_1459)">
<path d="M35.5157 8.65677C31.8216 5.12805 28.9177 7.16809 26.1977 8.10541C25.1749 8.46429 24.0748 8.52812 22.9998 8.52812C21.9232 8.52812 20.8274 8.45906 19.8019 8.10541C17.0818 7.16809 14.178 5.12805 10.4838 8.65677C6.73456 12.259 5.37453 20.9706 5.59508 24.6279C5.81562 28.3037 9.32597 30.0313 12.4687 27.3847C15.4634 24.8817 18.6633 19.9781 22.9998 19.9781C27.3481 19.9781 30.535 24.8659 33.5308 27.3847C36.6736 30.0313 40.1839 28.3037 40.4045 24.6279C40.625 20.9706 39.265 12.259 35.5157 8.67515V8.65677Z" fill="url(#paint0_linear_31_1459)"/>
</g>
<g filter="url(#filter2_d_31_1459)">
<path fill-rule="evenodd" clip-rule="evenodd" d="M16.1853 11.6734C16.1853 11.4525 16.0062 11.2734 15.7853 11.2734H14.5172C14.2963 11.2734 14.1172 11.4525 14.1172 11.6734V12.8119C14.1172 13.0328 13.9381 13.2119 13.7172 13.2119L12.5777 13.2119C12.3568 13.2119 12.1777 13.391 12.1777 13.6119V14.8801C12.1777 15.101 12.3568 15.2801 12.5777 15.2801H13.7172C13.9381 15.2801 14.1172 15.4591 14.1172 15.6801V16.8187C14.1172 17.0397 14.2963 17.2188 14.5172 17.2188H15.7853C16.0062 17.2188 16.1853 17.0397 16.1853 16.8187V15.6801C16.1853 15.4591 16.3644 15.2801 16.5853 15.2801H17.723C17.944 15.2801 18.123 15.101 18.123 14.8801V13.6119C18.123 13.391 17.944 13.2119 17.723 13.2119L16.5853 13.2119C16.3644 13.2119 16.1853 13.0328 16.1853 12.8119V11.6734Z" fill="url(#paint1_linear_31_1459)"/>
</g>
<g filter="url(#filter3_d_31_1459)">
<circle cx="29.3614" cy="15.5919" r="1.62703" fill="url(#paint2_linear_31_1459)"/>
</g>
<g filter="url(#filter4_d_31_1459)">
<circle cx="32.6153" cy="12.9005" r="1.62703" fill="url(#paint3_linear_31_1459)"/>
</g>
<g filter="url(#filter5_d_31_1459)">
<path d="M26.0252 7.41498C25.7148 7.35281 23.5292 7.32617 23.003 7.32617C22.4768 7.32617 20.2911 7.35281 19.9808 7.41498C19.7649 7.45938 19.8054 7.62812 19.8324 7.69917C19.8863 7.9123 20.534 10.3989 20.7633 10.8785C20.8308 11.0295 20.9522 11.2515 21.4244 11.2692C21.8292 11.2781 22.0855 11.2515 23.003 11.2426C23.9204 11.2426 24.0688 11.287 24.4736 11.2692C24.9458 11.2515 25.0672 11.0295 25.1347 10.8785C25.364 10.3989 26.1196 7.9123 26.1736 7.69917C26.1871 7.62812 26.241 7.45938 26.0252 7.41498Z" fill="url(#paint4_linear_31_1459)"/>
</g>
<path d="M52.0205 28.0301C76.9097 24.2322 128.303 23.0691 118.238 26.1802C108.802 29.0967 87.2177 35.431 101.689 33.4692C130.352 29.5834 161.108 28.0297 190 28.0297" stroke="url(#paint5_linear_31_1459)" stroke-width="8" stroke-linecap="round"/>
<path d="M71.7026 14.8731L68.2026 22.0411C67.904 22.6384 67.5866 23.0678 67.2506 23.3291C66.9146 23.5718 66.5133 23.6931 66.0466 23.6931C65.4493 23.6931 64.9453 23.4878 64.5346 23.0771C64.124 22.6478 63.592 21.8824 62.9386 20.7811L59.6906 14.8731V22.7971C59.6906 23.5998 59.504 24.1878 59.1306 24.5611C58.776 24.9344 58.2346 25.1211 57.5066 25.1211C56.6853 25.1211 56.088 24.9438 55.7146 24.5891C55.3413 24.2158 55.1546 23.4971 55.1546 22.4331V10.2251C55.1546 8.78776 55.4813 7.70509 56.1346 6.97709C56.788 6.24909 57.8893 5.88509 59.4386 5.88509C60.0173 5.88509 60.5213 5.98776 60.9506 6.19309C61.38 6.37976 61.6973 6.60376 61.9026 6.86509C62.1266 7.10776 62.3413 7.41576 62.5466 7.78909L66.2986 15.9931L70.2746 7.92909C70.9653 6.58509 72.2066 5.91309 73.9986 5.91309C74.8386 5.91309 75.5573 6.06243 76.1546 6.36109C76.752 6.64109 77.2186 7.10776 77.5546 7.76109C77.9093 8.39576 78.0866 9.19843 78.0866 10.1691V22.3491C78.068 24.1971 76.9013 25.1211 74.5866 25.1211C73.7466 25.1211 73.056 24.8971 72.5146 24.4491C71.992 23.9824 71.7213 23.2358 71.7026 22.2091V14.8731ZM80.0888 7.87309C80.0888 7.25709 80.3501 6.75309 80.8728 6.36109C81.4141 5.95043 82.1701 5.74509 83.1408 5.74509C85.1754 5.74509 86.1928 6.45443 86.1928 7.87309C86.1928 8.65709 85.9314 9.20776 85.4088 9.52509C84.9048 9.84243 84.1488 10.0011 83.1408 10.0011C82.2634 10.0011 81.5354 9.83309 80.9568 9.49709C80.3781 9.16109 80.0888 8.61976 80.0888 7.87309ZM86.1648 22.1251C86.1648 23.2451 85.9314 24.0291 85.4648 24.4771C84.9981 24.9064 84.1768 25.1211 83.0008 25.1211C81.8994 25.1211 81.1434 24.8691 80.7328 24.3651C80.3408 23.8424 80.1448 22.9931 80.1448 21.8171V14.9291C80.1448 13.9771 80.3968 13.2118 80.9008 12.6331C81.4234 12.0544 82.1141 11.7651 82.9728 11.7651C83.9808 11.7651 84.7648 11.9891 85.3248 12.4371C85.8848 12.8664 86.1648 13.6691 86.1648 14.8451V22.1251ZM96.3 17.5891C96.3 16.5438 95.8893 16.0211 95.068 16.0211C94.676 16.0211 94.3493 16.1891 94.088 16.5251C93.8453 16.8424 93.7053 17.2718 93.668 17.8131V22.1251C93.668 23.2638 93.4347 24.0478 92.968 24.4771C92.5013 24.9064 91.68 25.1211 90.504 25.1211C89.4027 25.1211 88.6467 24.8691 88.236 24.3651C87.844 23.8424 87.648 22.9931 87.648 21.8171V14.9291C87.648 13.9771 87.9 13.2118 88.404 12.6331C88.9267 12.0544 89.6173 11.7651 90.476 11.7651C91.1853 11.7651 91.7827 11.8678 92.268 12.0731C92.7533 12.2784 93.1173 12.6331 93.36 13.1371C94.816 12.1851 96.5893 11.7091 98.68 11.7091C100.005 11.7091 100.957 12.2318 101.536 13.2771C102.133 14.3224 102.432 16.0398 102.432 18.4291C102.432 19.6051 102.404 20.5664 102.348 21.3131C102.292 22.0411 102.199 22.6758 102.068 23.2171C101.956 23.7398 101.769 24.1318 101.508 24.3931C101.247 24.6544 100.939 24.8411 100.584 24.9531C100.248 25.0651 99.8093 25.1211 99.268 25.1211C98.2227 25.1211 97.4667 24.9251 97 24.5331C96.552 24.1411 96.328 23.5624 96.328 22.7971L96.3 17.5891ZM103.874 7.87309C103.874 7.25709 104.135 6.75309 104.658 6.36109C105.199 5.95043 105.955 5.74509 106.926 5.74509C108.961 5.74509 109.978 6.45443 109.978 7.87309C109.978 8.65709 109.717 9.20776 109.194 9.52509C108.69 9.84243 107.934 10.0011 106.926 10.0011C106.049 10.0011 105.321 9.83309 104.742 9.49709C104.163 9.16109 103.874 8.61976 103.874 7.87309ZM109.95 22.1251C109.95 23.2451 109.717 24.0291 109.25 24.4771C108.783 24.9064 107.962 25.1211 106.786 25.1211C105.685 25.1211 104.929 24.8691 104.518 24.3651C104.126 23.8424 103.93 22.9931 103.93 21.8171V14.9291C103.93 13.9771 104.182 13.2118 104.686 12.6331C105.209 12.0544 105.899 11.7651 106.758 11.7651C107.766 11.7651 108.55 11.9891 109.11 12.4371C109.67 12.8664 109.95 13.6691 109.95 14.8451V22.1251ZM123.132 25.2891C121.657 25.2891 120.435 24.6918 119.464 23.4971C118.493 22.2838 118.008 20.6224 118.008 18.5131C118.008 16.3851 118.484 14.6958 119.436 13.4451C120.388 12.1944 121.611 11.5691 123.104 11.5691C124.616 11.5691 126.016 12.0918 127.304 13.1371C127.789 12.2224 128.592 11.7651 129.712 11.7651C130.72 11.7651 131.504 11.9891 132.064 12.4371C132.643 12.8851 132.932 13.6878 132.932 14.8451V19.9691C132.932 21.7798 132.811 23.3384 132.568 24.6451C132.344 25.9331 131.943 27.0718 131.364 28.0611C130.804 29.0504 130.02 29.7878 129.012 30.2731C128.023 30.7584 126.8 31.0011 125.344 31.0011C124.336 31.0011 123.403 30.8611 122.544 30.5811C121.685 30.3011 121.004 29.9558 120.5 29.5451C119.996 29.1344 119.604 28.7238 119.324 28.3131C119.044 27.9024 118.904 27.5478 118.904 27.2491C118.904 26.8944 119.007 26.5958 119.212 26.3531C119.417 26.1104 119.707 25.9891 120.08 25.9891C120.304 25.9891 120.864 26.2318 121.76 26.7171C122.675 27.2024 123.412 27.4451 123.972 27.4451C125.876 27.4451 126.828 26.4651 126.828 24.5051C125.745 25.0278 124.513 25.2891 123.132 25.2891ZM126.94 21.0891L126.912 15.7971C126.595 15.2744 126.193 15.0131 125.708 15.0131C125.372 15.0131 125.073 15.1904 124.812 15.5451C124.569 15.8998 124.383 16.3384 124.252 16.8611C124.14 17.3838 124.084 17.9344 124.084 18.5131C124.084 19.3904 124.224 20.1651 124.504 20.8371C124.784 21.4904 125.176 21.8171 125.68 21.8171C126.184 21.8171 126.604 21.5744 126.94 21.0891ZM139.521 25.2891C138.046 25.2891 136.823 24.6918 135.853 23.4971C134.882 22.2838 134.397 20.6318 134.397 18.5411C134.397 16.4131 134.873 14.7238 135.825 13.4731C136.795 12.2038 138.027 11.5691 139.521 11.5691C141.033 11.5691 142.433 12.1011 143.721 13.1651C144.225 12.2318 145.037 11.7651 146.157 11.7651C147.165 11.7651 147.949 11.9891 148.509 12.4371C149.069 12.8664 149.349 13.6691 149.349 14.8451V22.1251C149.349 23.2451 149.115 24.0291 148.649 24.4771C148.182 24.9064 147.361 25.1211 146.185 25.1211C144.953 25.1211 144.141 24.7758 143.749 24.0851C142.554 24.8878 141.145 25.2891 139.521 25.2891ZM143.329 15.8531C143.011 15.3118 142.601 15.0411 142.097 15.0411C141.611 15.0411 141.219 15.3958 140.921 16.1051C140.622 16.8144 140.473 17.6264 140.473 18.5411C140.473 19.3998 140.613 20.1651 140.893 20.8371C141.173 21.5091 141.565 21.8451 142.069 21.8451C142.591 21.8451 143.011 21.5931 143.329 21.0891V15.8531ZM167.585 17.7291C167.585 16.6838 167.165 16.1611 166.325 16.1611C165.952 16.1611 165.672 16.3758 165.485 16.8051C165.299 17.2344 165.205 17.7758 165.205 18.4291C165.205 19.4184 165.187 20.2398 165.149 20.8931C165.131 21.5464 165.075 22.1344 164.981 22.6571C164.888 23.1798 164.776 23.5904 164.645 23.8891C164.515 24.1878 164.337 24.4398 164.113 24.6451C163.889 24.8318 163.637 24.9624 163.357 25.0371C163.077 25.0931 162.723 25.1211 162.293 25.1211C161.64 25.1211 161.108 25.0278 160.697 24.8411C160.305 24.6544 160.025 24.3931 159.857 24.0571C159.689 23.7211 159.605 23.3011 159.605 22.7971V17.7291C159.605 16.6838 159.185 16.1611 158.345 16.1611C158.009 16.1611 157.729 16.3571 157.505 16.7491C157.3 17.1224 157.197 17.6171 157.197 18.2331V22.1251C157.197 23.2451 156.964 24.0291 156.497 24.4771C156.031 24.9064 155.209 25.1211 154.033 25.1211C152.932 25.1211 152.176 24.8691 151.765 24.3651C151.373 23.8424 151.177 22.9931 151.177 21.8171V14.9291C151.177 13.9771 151.429 13.2118 151.933 12.6331C152.456 12.0544 153.147 11.7651 154.005 11.7651C155.536 11.7651 156.507 12.2598 156.917 13.2491C157.627 12.7264 158.317 12.3624 158.989 12.1571C159.68 11.9518 160.483 11.8491 161.397 11.8491C162.779 11.8491 163.777 12.4464 164.393 13.6411C164.487 13.5664 164.58 13.4918 164.673 13.4171C166.111 12.3718 167.875 11.8491 169.965 11.8491C171.291 11.8491 172.243 12.3531 172.821 13.3611C173.4 14.3691 173.689 16.0584 173.689 18.4291C173.689 19.4184 173.671 20.2398 173.633 20.8931C173.615 21.5464 173.559 22.1344 173.465 22.6571C173.372 23.1798 173.251 23.5904 173.101 23.8891C172.971 24.1878 172.775 24.4398 172.513 24.6451C172.271 24.8318 171.991 24.9624 171.673 25.0371C171.375 25.0931 170.992 25.1211 170.525 25.1211C169.816 25.1211 169.237 25.0278 168.789 24.8411C168.36 24.6544 168.052 24.3931 167.865 24.0571C167.679 23.7211 167.585 23.3011 167.585 22.7971V17.7291ZM183.029 25.2891C180.752 25.2891 178.866 24.7011 177.373 23.5251C175.898 22.3491 175.161 20.7438 175.161 18.7091C175.161 16.5064 175.889 14.7704 177.345 13.5011C178.82 12.2131 180.714 11.5691 183.029 11.5691C185.213 11.5691 186.809 11.9611 187.817 12.7451C188.844 13.5104 189.357 14.5651 189.357 15.9091C189.357 16.1704 189.32 16.4224 189.245 16.6651C189.189 16.9078 189.086 17.1504 188.937 17.3931C188.806 17.6171 188.62 17.8318 188.377 18.0371C188.153 18.2238 187.892 18.4011 187.593 18.5691C187.294 18.7184 186.94 18.8398 186.529 18.9331C186.118 19.0078 185.68 19.0451 185.213 19.0451L181.265 19.0731C181.452 19.6704 181.788 20.1464 182.273 20.5011C182.758 20.8371 183.374 21.0051 184.121 21.0051C184.924 21.0051 185.745 20.9024 186.585 20.6971C186.94 20.6038 187.322 20.4544 187.733 20.2491C188.162 20.0438 188.47 19.9411 188.657 19.9411C188.974 19.9411 189.217 20.0344 189.385 20.2211C189.572 20.4078 189.665 20.6411 189.665 20.9211C189.665 21.2571 189.516 21.6678 189.217 22.1531C188.918 22.6198 188.498 23.0958 187.957 23.5811C187.434 24.0478 186.734 24.4491 185.857 24.7851C184.98 25.1211 184.037 25.2891 183.029 25.2891ZM181.125 17.2811C182.413 17.2624 183.113 17.2531 183.225 17.2531C183.505 17.2531 183.71 17.0851 183.841 16.7491C183.934 16.5064 183.981 16.1704 183.981 15.7411C183.981 14.5651 183.626 13.9771 182.917 13.9771C182.656 13.9771 182.394 14.1171 182.133 14.3971C181.89 14.6771 181.676 15.0784 181.489 15.6011C181.302 16.1051 181.181 16.6651 181.125 17.2811Z" fill="#413A92"/>
<path d="M190 27.7969C175.238 27.7969 152.057 28.4765 135.616 29.9969" stroke="url(#paint6_linear_31_1459)" stroke-width="8" stroke-linecap="round"/>
<defs>
<filter id="filter0_d_31_1459" x="0.886719" y="6.75488" width="44.2266" height="33.8164" filterUnits="userSpaceOnUse" color-interpolation-filters="sRGB">
<feFlood flood-opacity="0" result="BackgroundImageFix"/>
<feColorMatrix in="SourceAlpha" type="matrix" values="0 0 0 0 0 0 0 0 0 0 0 0 0 0 0 0 0 0 127 0" result="hardAlpha"/>
<feOffset dy="6"/>
<feGaussianBlur stdDeviation="4"/>
<feComposite in2="hardAlpha" operator="out"/>
<feColorMatrix type="matrix" values="0 0 0 0 0.360151 0 0 0 0 0.493312 0 0 0 0 0.96543 0 0 0 0.45 0"/>
<feBlend mode="normal" in2="BackgroundImageFix" result="effect1_dropShadow_31_1459"/>
<feBlend mode="normal" in="SourceGraphic" in2="effect1_dropShadow_31_1459" result="shape"/>
</filter>
<filter id="filter1_iii_31_1459" x="5.57227" y="0.663086" width="34.8555" height="29" filterUnits="userSpaceOnUse" color-interpolation-filters="sRGB">
<feFlood flood-opacity="0" result="BackgroundImageFix"/>
<feBlend mode="normal" in="SourceGraphic" in2="BackgroundImageFix" result="shape"/>
<feColorMatrix in="SourceAlpha" type="matrix" values="0 0 0 0 0 0 0 0 0 0 0 0 0 0 0 0 0 0 127 0" result="hardAlpha"/>
<feOffset dy="1"/>
<feGaussianBlur stdDeviation="1"/>
<feComposite in2="hardAlpha" operator="arithmetic" k2="-1" k3="1"/>
<feColorMatrix type="matrix" values="0 0 0 0 1 0 0 0 0 0.594111 0 0 0 0 0.219445 0 0 0 0.6 0"/>
<feBlend mode="normal" in2="shape" result="effect1_innerShadow_31_1459"/>
<feColorMatrix in="SourceAlpha" type="matrix" values="0 0 0 0 0 0 0 0 0 0 0 0 0 0 0 0 0 0 127 0" result="hardAlpha"/>
<feOffset dy="-6"/>
<feGaussianBlur stdDeviation="3"/>
<feComposite in2="hardAlpha" operator="arithmetic" k2="-1" k3="1"/>
<feColorMatrix type="matrix" values="0 0 0 0 0.185099 0 0 0 0 0.0518593 0 0 0 0 0.718055 0 0 0 0.71 0"/>
<feBlend mode="normal" in2="effect1_innerShadow_31_1459" result="effect2_innerShadow_31_1459"/>
<feColorMatrix in="SourceAlpha" type="matrix" values="0 0 0 0 0 0 0 0 0 0 0 0 0 0 0 0 0 0 127 0" result="hardAlpha"/>
<feOffset dy="-1"/>
<feGaussianBlur stdDeviation="1.7"/>
<feComposite in2="hardAlpha" operator="arithmetic" k2="-1" k3="1"/>
<feColorMatrix type="matrix" values="0 0 0 0 0.147222 0 0 0 0 0.693 0 0 0 0 1 0 0 0 0.47 0"/>
<feBlend mode="normal" in2="effect2_innerShadow_31_1459" result="effect3_innerShadow_31_1459"/>
</filter>
<filter id="filter2_d_31_1459" x="10.1777" y="10.2734" width="9.94531" height="9.94531" filterUnits="userSpaceOnUse" color-interpolation-filters="sRGB">
<feFlood flood-opacity="0" result="BackgroundImageFix"/>
<feColorMatrix in="SourceAlpha" type="matrix" values="0 0 0 0 0 0 0 0 0 0 0 0 0 0 0 0 0 0 127 0" result="hardAlpha"/>
<feOffset dy="1"/>
<feGaussianBlur stdDeviation="1"/>
<feComposite in2="hardAlpha" operator="out"/>
<feColorMatrix type="matrix" values="0 0 0 0 0.312464 0 0 0 0 0.117863 0 0 0 0 0.848611 0 0 0 0.76 0"/>
<feBlend mode="normal" in2="BackgroundImageFix" result="effect1_dropShadow_31_1459"/>
<feBlend mode="normal" in="SourceGraphic" in2="effect1_dropShadow_31_1459" result="shape"/>
</filter>
<filter id="filter3_d_31_1459" x="25.7344" y="12.9648" width="7.25391" height="7.25415" filterUnits="userSpaceOnUse" color-interpolation-filters="sRGB">
<feFlood flood-opacity="0" result="BackgroundImageFix"/>
<feColorMatrix in="SourceAlpha" type="matrix" values="0 0 0 0 0 0 0 0 0 0 0 0 0 0 0 0 0 0 127 0" result="hardAlpha"/>
<feOffset dy="1"/>
<feGaussianBlur stdDeviation="1"/>
<feComposite in2="hardAlpha" operator="out"/>
<feColorMatrix type="matrix" values="0 0 0 0 0.312464 0 0 0 0 0.117863 0 0 0 0 0.848611 0 0 0 0.76 0"/>
<feBlend mode="normal" in2="BackgroundImageFix" result="effect1_dropShadow_31_1459"/>
<feBlend mode="normal" in="SourceGraphic" in2="effect1_dropShadow_31_1459" result="shape"/>
</filter>
<filter id="filter4_d_31_1459" x="28.9883" y="10.2734" width="7.25391" height="7.25415" filterUnits="userSpaceOnUse" color-interpolation-filters="sRGB">
<feFlood flood-opacity="0" result="BackgroundImageFix"/>
<feColorMatrix in="SourceAlpha" type="matrix" values="0 0 0 0 0 0 0 0 0 0 0 0 0 0 0 0 0 0 127 0" result="hardAlpha"/>
<feOffset dy="1"/>
<feGaussianBlur stdDeviation="1"/>
<feComposite in2="hardAlpha" operator="out"/>
<feColorMatrix type="matrix" values="0 0 0 0 0.312464 0 0 0 0 0.117863 0 0 0 0 0.848611 0 0 0 0.76 0"/>
<feBlend mode="normal" in2="BackgroundImageFix" result="effect1_dropShadow_31_1459"/>
<feBlend mode="normal" in="SourceGraphic" in2="effect1_dropShadow_31_1459" result="shape"/>
</filter>
<filter id="filter5_d_31_1459" x="17.8105" y="6.32617" width="10.3789" height="7.94727" filterUnits="userSpaceOnUse" color-interpolation-filters="sRGB">
<feFlood flood-opacity="0" result="BackgroundImageFix"/>
<feColorMatrix in="SourceAlpha" type="matrix" values="0 0 0 0 0 0 0 0 0 0 0 0 0 0 0 0 0 0 127 0" result="hardAlpha"/>
<feOffset dy="1"/>
<feGaussianBlur stdDeviation="1"/>
<feComposite in2="hardAlpha" operator="out"/>
<feColorMatrix type="matrix" values="0 0 0 0 0.879167 0 0 0 0 0.47475 0 0 0 0 0 0 0 0 0.55 0"/>
<feBlend mode="normal" in2="BackgroundImageFix" result="effect1_dropShadow_31_1459"/>
<feBlend mode="normal" in="SourceGraphic" in2="effect1_dropShadow_31_1459" result="shape"/>
</filter>
<linearGradient id="paint0_linear_31_1459" x1="22.9998" y1="6.66309" x2="22.9998" y2="28.6631" gradientUnits="userSpaceOnUse">
<stop stop-color="#7F31FF"/>
<stop offset="0.926666" stop-color="#4820FF"/>
</linearGradient>
<linearGradient id="paint1_linear_31_1459" x1="15.1504" y1="11.2734" x2="15.1504" y2="17.2188" gradientUnits="userSpaceOnUse">
<stop stop-color="#FFB950"/>
<stop offset="1" stop-color="#FA5C2A"/>
</linearGradient>
<linearGradient id="paint2_linear_31_1459" x1="29.3614" y1="13.9648" x2="29.3614" y2="17.2189" gradientUnits="userSpaceOnUse">
<stop stop-color="#FFB950"/>
<stop offset="1" stop-color="#FA5C2A"/>
</linearGradient>
<linearGradient id="paint3_linear_31_1459" x1="32.6153" y1="11.2734" x2="32.6153" y2="14.5275" gradientUnits="userSpaceOnUse">
<stop stop-color="#FFB950"/>
<stop offset="1" stop-color="#FA5C2A"/>
</linearGradient>
<linearGradient id="paint4_linear_31_1459" x1="23" y1="7.32617" x2="23" y2="11.2734" gradientUnits="userSpaceOnUse">
<stop stop-color="#FFBA51"/>
<stop offset="1" stop-color="#FF531D"/>
</linearGradient>
<linearGradient id="paint5_linear_31_1459" x1="49.5" y1="29.2332" x2="63.261" y2="46.8429" gradientUnits="userSpaceOnUse">
<stop stop-color="#C3DB08"/>
<stop offset="1" stop-color="#FEB33B"/>
</linearGradient>
<linearGradient id="paint6_linear_31_1459" x1="137.647" y1="29.439" x2="186.294" y2="29.439" gradientUnits="userSpaceOnUse">
<stop stop-color="#FEB33B"/>
<stop offset="1" stop-color="#FB9142"/>
</linearGradient>
</defs>
</svg>
