<svg xmlns="http://www.w3.org/2000/svg" width="36" height="36" viewBox="0 0 36 36" fill="none">
  <path fill-rule="evenodd" clip-rule="evenodd" d="M6.41199 9.55086L3.13348 9.55084C1.2787 9.55084 -0.0270538 13.9313 0.00042565 18.3606C0.0300747 23.1396 1.37574 27.9942 3.13348 27.9942H6.64288C5.99878 25.4116 5.44204 21.6384 5.42536 17.975C5.41099 14.8206 5.84129 11.7509 6.41199 9.55086ZM29.1993 27.9942C29.825 25.4116 30.3606 21.6384 30.3773 17.975C30.3917 14.8205 29.9796 11.7509 29.4262 9.5508L31.5951 9.55078C33.443 9.55078 34.7439 13.9312 34.7165 18.3605C34.687 23.1396 33.3463 27.9942 31.5951 27.9942H29.1993Z" fill="#696F7A"/>
  <path fill-rule="evenodd" clip-rule="evenodd" d="M34.0241 4.79462L32.5326 12.417C32.4357 13.0083 31.8778 13.409 31.2865 13.3121C30.6952 13.2152 30.2945 12.6572 30.3914 12.066L33.6175 4.64062L34.0241 4.79462Z" fill="#696F7A"/>
  <circle cx="33.8372" cy="4.67314" r="2.16239" fill="#696F7A"/>
  <path fill-rule="evenodd" clip-rule="evenodd" d="M6.68985 17.9755C6.66255 11.9829 8.05901 6.29635 9.15518 6.29639H26.7105C27.8067 6.29635 29.194 11.9829 29.1667 17.9755C29.1372 24.4413 27.6157 31.2492 26.7105 31.2492H9.15518C8.25004 31.2492 6.7193 24.4413 6.68985 17.9755ZM14.9747 22.0541C14.5726 23.2277 14.3716 24.298 14.3716 25.265H18.9842C18.9842 24.2436 19.1744 23.1081 19.5547 21.8585C19.9459 20.5981 20.4294 19.3757 21.0053 18.1913C21.5921 16.996 22.1843 15.9529 22.7819 15.0619V12.5844H12.5461V17.2459H15.9689V15.7464H18.3975C17.7672 16.5722 17.1425 17.5393 16.5231 18.6476C15.9037 19.7451 15.3876 20.8806 14.9747 22.0541Z" fill="#696F7A"/>
</svg>