<svg width="44" height="36" viewBox="0 0 44 36" fill="none" xmlns="http://www.w3.org/2000/svg">
<g filter="url(#filter0_d_2006_389)">
<path fill-rule="evenodd" clip-rule="evenodd" d="M24.3002 9.00008L8.88825 9C7.17863 9 5.97506 13.0376 6.00039 17.1203C6.02772 21.5253 7.26808 26 8.88825 26H21H29H35.1224C36.7366 26 37.9724 21.5253 37.9996 17.1203C38.0248 13.0376 36.8257 9 35.1224 9L24.3002 9.00008Z" fill="url(#paint0_linear_2006_389)"/>
</g>
<path d="M13.4397 6C12.4293 5.99997 10.9752 11.2415 11.0004 16.7651C11.0275 22.7249 12.6054 29 13.4397 29H31.621C32.4553 29 33.9725 22.7249 33.9996 16.7651C34.0248 11.2415 32.6314 5.99997 31.621 6H13.4397Z" fill="url(#paint1_linear_2006_389)"/>
<path d="M15.7499 8C14.9187 7.99997 13.9796 12.5256 14.0003 17.0887C14.0227 22.0119 15.0636 27 15.7499 27H29.5616C30.248 27 30.9772 21.8162 30.9995 16.8929C31.0202 12.3299 30.3929 7.99997 29.5616 8L15.7499 8Z" fill="url(#paint2_linear_2006_389)"/>
<path fill-rule="evenodd" clip-rule="evenodd" d="M37.3617 4.61558L35.987 11.6414C35.8976 12.1864 35.3834 12.5558 34.8384 12.4665C34.2934 12.3771 33.924 11.8629 34.0133 11.3179L36.987 4.47363L37.3617 4.61558Z" fill="url(#paint3_linear_2006_389)"/>
<circle cx="37.1895" cy="4.50391" r="1.99316" fill="#FF4848"/>
<mask id="path-6-outside-1_2006_389" maskUnits="userSpaceOnUse" x="17.2852" y="11.3076" width="10" height="12" fill="black">
<rect fill="white" x="17.2852" y="11.3076" width="10" height="12"/>
<path d="M19.8585 22.3076C19.8585 21.5956 20.0065 20.8076 20.3025 19.9436C20.6065 19.0796 20.9865 18.2436 21.4425 17.4356C21.8985 16.6196 22.3585 15.9076 22.8225 15.2996H21.0345V16.4036H18.5145V12.9716H26.0505V14.7956C25.6105 15.4516 25.1745 16.2196 24.7425 17.0996C24.3185 17.9716 23.9625 18.8716 23.6745 19.7996C23.3945 20.7196 23.2545 21.5556 23.2545 22.3076H19.8585Z"/>
</mask>
<path d="M19.8585 22.3076C19.8585 21.5956 20.0065 20.8076 20.3025 19.9436C20.6065 19.0796 20.9865 18.2436 21.4425 17.4356C21.8985 16.6196 22.3585 15.9076 22.8225 15.2996H21.0345V16.4036H18.5145V12.9716H26.0505V14.7956C25.6105 15.4516 25.1745 16.2196 24.7425 17.0996C24.3185 17.9716 23.9625 18.8716 23.6745 19.7996C23.3945 20.7196 23.2545 21.5556 23.2545 22.3076H19.8585Z" fill="url(#paint4_linear_2006_389)"/>
<path d="M19.8585 22.3076H18.8585V23.3076H19.8585V22.3076ZM20.3025 19.9436L19.3592 19.6117L19.3565 19.6195L20.3025 19.9436ZM21.4425 17.4356L22.3134 17.9271L22.3155 17.9234L21.4425 17.4356ZM22.8225 15.2996L23.6175 15.9063L24.8436 14.2996H22.8225V15.2996ZM21.0345 15.2996V14.2996H20.0345V15.2996H21.0345ZM21.0345 16.4036V17.4036H22.0345V16.4036H21.0345ZM18.5145 16.4036H17.5145V17.4036H18.5145V16.4036ZM18.5145 12.9716V11.9716H17.5145V12.9716H18.5145ZM26.0505 12.9716H27.0505V11.9716H26.0505V12.9716ZM26.0505 14.7956L26.881 15.3527L27.0505 15.0999V14.7956H26.0505ZM24.7425 17.0996L23.8449 16.6589L23.8432 16.6623L24.7425 17.0996ZM23.6745 19.7996L22.7195 19.5032L22.7179 19.5085L23.6745 19.7996ZM23.2545 22.3076V23.3076H24.2545V22.3076H23.2545ZM20.8585 22.3076C20.8585 21.732 20.9787 21.0554 21.2486 20.2677L19.3565 19.6195C19.0344 20.5598 18.8585 21.4592 18.8585 22.3076H20.8585ZM21.2458 20.2755C21.5302 19.4674 21.8858 18.6848 22.3134 17.9271L20.5716 16.9441C20.0873 17.8024 19.6829 18.6918 19.3592 19.6117L21.2458 20.2755ZM22.3155 17.9234C22.7532 17.1401 23.1878 16.4694 23.6175 15.9063L22.0276 14.6929C21.5293 15.3459 21.0439 16.0991 20.5696 16.9478L22.3155 17.9234ZM22.8225 14.2996H21.0345V16.2996H22.8225V14.2996ZM20.0345 15.2996V16.4036H22.0345V15.2996H20.0345ZM21.0345 15.4036H18.5145V17.4036H21.0345V15.4036ZM19.5145 16.4036V12.9716H17.5145V16.4036H19.5145ZM18.5145 13.9716H26.0505V11.9716H18.5145V13.9716ZM25.0505 12.9716V14.7956H27.0505V12.9716H25.0505ZM25.22 14.2386C24.75 14.9394 24.2921 15.7478 23.8449 16.6589L25.6402 17.5403C26.0569 16.6914 26.4711 15.9638 26.881 15.3527L25.22 14.2386ZM23.8432 16.6623C23.397 17.5799 23.0224 18.527 22.7195 19.5032L24.6296 20.096C24.9026 19.2162 25.24 18.3633 25.6419 17.5369L23.8432 16.6623ZM22.7179 19.5085C22.4167 20.4979 22.2545 21.4339 22.2545 22.3076H24.2545C24.2545 21.6773 24.3723 20.9413 24.6312 20.0908L22.7179 19.5085ZM23.2545 21.3076H19.8585V23.3076H23.2545V21.3076Z" fill="#FFF1D1" mask="url(#path-6-outside-1_2006_389)"/>
<defs>
<filter id="filter0_d_2006_389" x="0" y="7" width="44" height="29" filterUnits="userSpaceOnUse" color-interpolation-filters="sRGB">
<feFlood flood-opacity="0" result="BackgroundImageFix"/>
<feColorMatrix in="SourceAlpha" type="matrix" values="0 0 0 0 0 0 0 0 0 0 0 0 0 0 0 0 0 0 127 0" result="hardAlpha"/>
<feOffset dy="4"/>
<feGaussianBlur stdDeviation="3"/>
<feComposite in2="hardAlpha" operator="out"/>
<feColorMatrix type="matrix" values="0 0 0 0 0.98059 0 0 0 0 0.485645 0 0 0 0 1 0 0 0 0.5 0"/>
<feBlend mode="normal" in2="BackgroundImageFix" result="effect1_dropShadow_2006_389"/>
<feBlend mode="normal" in="SourceGraphic" in2="effect1_dropShadow_2006_389" result="shape"/>
</filter>
<linearGradient id="paint0_linear_2006_389" x1="22.2197" y1="9.30762" x2="22.2197" y2="25.3892" gradientUnits="userSpaceOnUse">
<stop stop-color="#EF4800"/>
<stop offset="0.21" stop-color="#F39200"/>
<stop offset="0.716095" stop-color="#DA4100"/>
<stop offset="1" stop-color="#9328FF"/>
</linearGradient>
<linearGradient id="paint1_linear_2006_389" x1="22.5" y1="6" x2="22.5" y2="29" gradientUnits="userSpaceOnUse">
<stop stop-color="#FF9C28"/>
<stop offset="0.277114" stop-color="#FFD770"/>
<stop offset="0.431165" stop-color="#FFC670"/>
<stop offset="0.788018" stop-color="#E95400"/>
<stop offset="1" stop-color="#B71DED"/>
</linearGradient>
<linearGradient id="paint2_linear_2006_389" x1="29.0405" y1="8" x2="29.0405" y2="27" gradientUnits="userSpaceOnUse">
<stop stop-color="#F78500"/>
<stop offset="0.277114" stop-color="#FFCD4E"/>
<stop offset="0.431165" stop-color="#FFB039"/>
<stop offset="0.788018" stop-color="#E95400"/>
<stop offset="1" stop-color="#B817F0"/>
</linearGradient>
<linearGradient id="paint3_linear_2006_389" x1="37.3617" y1="4.47363" x2="36.1809" y2="12.0589" gradientUnits="userSpaceOnUse">
<stop stop-color="#FFB628"/>
<stop offset="1" stop-color="#FFDA91"/>
</linearGradient>
<linearGradient id="paint4_linear_2006_389" x1="22.2852" y1="10.3076" x2="22.2852" y2="26.3076" gradientUnits="userSpaceOnUse">
<stop stop-color="#FF511B"/>
<stop offset="1" stop-color="#DF1B00"/>
</linearGradient>
</defs>
</svg>
