<svg xmlns="http://www.w3.org/2000/svg" width="36" height="36" viewBox="0 0 36 36" fill="none">
<path fill-rule="evenodd" clip-rule="evenodd" d="M23.0982 3.73958L18.0583 7.25927L13.0977 3.67051C14.634 3.13949 16.2835 2.85107 18.0003 2.85107C19.7901 2.85107 21.5067 3.16454 23.0982 3.73958ZM12.0021 4.34717C10.0579 5.19631 8.32851 6.44563 6.91803 7.99101C7.02469 8.05756 7.11141 8.15805 7.16003 8.28443L9.4837 14.3242L12.1465 15.4034L17.4524 11.2223V8.55061L12.2485 4.78587C12.1003 4.67864 12.0156 4.51628 12.0021 4.34717ZM6.07058 8.97803C4.35686 11.1953 3.25031 13.9058 3.00006 16.8602L8.19972 14.5122L6.07058 8.97803ZM28.841 8.58249C28.9175 8.3847 29.0873 8.25055 29.2807 8.21089C27.9011 6.63847 26.1981 5.35695 24.2755 4.47028C24.2381 4.59572 24.1597 4.70988 24.044 4.79064L18.6525 8.55591V11.2213L23.9584 15.4025L26.6216 14.3232L28.841 8.58249ZM21.4661 22.6826L23.1797 16.3165L18.0535 12.2769L12.9277 16.3161L14.6415 22.6826H21.4661ZM18.0005 33.1489C19.9356 33.1489 21.7851 32.7825 23.4834 32.1153C23.3476 32.0053 23.2608 31.8372 23.2608 31.6488V26.1445L21.6223 23.9312H14.4829L12.8441 26.1449V31.6488C12.8441 31.8531 12.742 32.0336 12.586 32.142C14.2655 32.7923 16.0914 33.1489 18.0005 33.1489ZM3.00006 18.1009C3.00006 20.7291 3.67597 23.1994 4.86344 25.3476C4.93604 25.3164 5.01603 25.2991 5.10006 25.2991H11.9418L13.5258 23.1593L11.7427 16.5353L9.03026 15.436L3.24693 18.0476C3.1667 18.0838 3.08271 18.1009 3.00006 18.1009ZM32.9999 18.321C32.9623 20.9299 32.2587 23.3775 31.0515 25.5016C30.9416 25.3771 30.7808 25.2986 30.6017 25.2986H24.1639L22.5801 23.1592L24.3634 16.5347L27.0525 15.4448L32.4176 18.3288C32.6068 18.4305 32.8263 18.4203 32.9999 18.321ZM24.459 31.642C26.8787 30.4859 28.94 28.7005 30.4312 26.4976H24.4605V31.5997L24.4604 31.6122L24.4599 31.6274L24.459 31.642ZM11.6514 31.6939C9.18428 30.5397 7.08308 28.7337 5.5694 26.4976H11.644V31.5997C11.644 31.6318 11.6465 31.6632 11.6514 31.6939ZM29.9536 9.03467C31.7095 11.3463 32.8102 14.1828 32.9789 17.2674L27.8389 14.5045L29.9536 9.03467Z" fill="#696F7A"/>
</svg>