<svg xmlns="http://www.w3.org/2000/svg" width="36" height="36" viewBox="0 0 36 36" fill="none">
  <g clip-path="url(#clip0_2006_414)">
    <g filter="url(#filter0_d_2006_414)">
      <rect x="1.29883" y="4.53418" width="21.2737" height="28.4503" rx="2.94783" transform="rotate(-6.8717 1.29883 4.53418)" fill="url(#paint0_linear_2006_414)"/>
    </g>
    <path fill-rule="evenodd" clip-rule="evenodd" d="M17.2539 15.9168C15.8121 14.7983 12.9784 12.5616 12.9784 12.5616C12.9784 12.5616 10.6924 15.4717 9.62224 16.8363C9.27353 17.3539 9.10846 17.9944 9.18899 18.6627C9.36715 20.1415 10.7097 21.1953 12.1884 21.0171C12.867 20.9354 13.4563 20.6081 13.8776 20.1357C13.8222 20.9772 13.0239 22.2399 12.1381 22.4477L16.1476 21.9647C15.236 21.9857 14.173 20.9584 13.9095 20.1335C14.4306 20.4914 15.0799 20.6688 15.7577 20.5871C17.2364 20.4089 18.2902 19.0664 18.1121 17.5877C18.0315 16.9193 17.7156 16.3368 17.2539 15.9168Z" fill="#E2F1FF"/>
    <path fill-rule="evenodd" clip-rule="evenodd" d="M6.37586 7.34562C5.96906 7.03004 5.16952 6.39893 5.16952 6.39893C5.16952 6.39893 4.52449 7.22004 4.22255 7.60506C4.12416 7.75111 4.07758 7.93182 4.1003 8.1204C4.15057 8.53764 4.52937 8.83498 4.94661 8.78471C5.13752 8.76171 5.30337 8.66986 5.42217 8.5372C5.40628 8.77461 5.18115 9.13049 4.93138 9.18909L6.06268 9.05279C5.80481 9.05874 5.50398 8.76735 5.43061 8.53429C5.57791 8.63601 5.76177 8.6865 5.95369 8.66337C6.37092 8.6131 6.66826 8.23431 6.61799 7.81707C6.59527 7.62849 6.50612 7.46412 6.37586 7.34562Z" fill="#E2F1FF"/>
    <rect x="14.9756" y="1.21973" width="20.3044" height="28.4503" rx="2.94783" transform="rotate(7.77857 14.9756 1.21973)" fill="url(#paint1_linear_2006_414)"/>
    <path fill-rule="evenodd" clip-rule="evenodd" d="M17.8537 6.40865C17.8537 6.40865 17.2743 5.64157 16.9782 5.25633C16.8875 5.11704 16.8453 4.94569 16.8696 4.76808C16.9233 4.37512 17.2852 4.10023 17.6782 4.15392C17.8604 4.17881 18.0173 4.27007 18.1277 4.39979C18.2688 4.30443 18.4444 4.2586 18.6266 4.2835C19.0196 4.33719 19.2945 4.69909 19.2408 5.09205C19.2165 5.26966 19.1309 5.42355 19.0062 5.53341C18.6386 5.81289 17.8537 6.40865 17.8537 6.40865ZM22.5503 20.8004C22.5503 20.8004 20.3744 17.9197 19.2624 16.4729C18.922 15.9498 18.7636 15.3063 18.8547 14.6393C19.0564 13.1636 20.4155 12.1312 21.8912 12.3329C22.5756 12.4264 23.1648 12.7691 23.5793 13.2562C24.1092 12.8981 24.7688 12.726 25.4531 12.8195C26.9289 13.0211 27.9612 14.3802 27.7596 15.856C27.6685 16.523 27.3468 17.1009 26.8785 17.5135C25.498 18.563 22.5503 20.8004 22.5503 20.8004ZM29.1327 28.0019C28.8873 27.5825 28.4089 26.7487 28.4089 26.7487C28.4089 26.7487 27.5554 27.2411 27.1556 27.4722C27.018 27.5655 26.9137 27.7074 26.8673 27.8805C26.7647 28.2636 26.9919 28.6572 27.375 28.7599C27.5527 28.8075 27.7327 28.7841 27.8846 28.7072C27.9778 28.8498 28.122 28.96 28.2997 29.0076C28.6828 29.1103 29.0763 28.883 29.179 28.4999C29.2254 28.3268 29.2051 28.1515 29.1327 28.0019Z" fill="#FFE1E1"/>
  </g>
  <defs>
    <filter id="filter0_d_2006_414" x="0.647457" y="-0.62776" width="31.7232" height="37.9898" filterUnits="userSpaceOnUse" color-interpolation-filters="sRGB">
      <feFlood flood-opacity="0" result="BackgroundImageFix"/>
      <feColorMatrix in="SourceAlpha" type="matrix" values="0 0 0 0 0 0 0 0 0 0 0 0 0 0 0 0 0 0 127 0" result="hardAlpha"/>
      <feOffset dx="2.94783" dy="0.982609"/>
      <feGaussianBlur stdDeviation="1.96522"/>
      <feComposite in2="hardAlpha" operator="out"/>
      <feColorMatrix type="matrix" values="0 0 0 0 0.78489 0 0 0 0 0.856626 0 0 0 0 0.980534 0 0 0 1 0"/>
      <feBlend mode="normal" in2="BackgroundImageFix" result="effect1_dropShadow_2006_414"/>
      <feBlend mode="normal" in="SourceGraphic" in2="effect1_dropShadow_2006_414" result="shape"/>
    </filter>
    <linearGradient id="paint0_linear_2006_414" x1="0.866426" y1="8.12221" x2="18.8793" y2="13.7506" gradientUnits="userSpaceOnUse">
      <stop offset="0.364868" stop-color="#72BBFF"/>
      <stop offset="0.692414" stop-color="#5B9AFF"/>
      <stop offset="1" stop-color="#845BFF"/>
    </linearGradient>
    <linearGradient id="paint1_linear_2006_414" x1="17.8337" y1="1.67507" x2="31.8935" y2="30.1327" gradientUnits="userSpaceOnUse">
      <stop stop-color="#FF987B"/>
      <stop offset="0.67615" stop-color="#FF5A86"/>
      <stop offset="1" stop-color="#F948BB"/>
    </linearGradient>
    <clipPath id="clip0_2006_414">
      <rect width="36" height="36" fill="white"/>
    </clipPath>
  </defs>
</svg>