<svg xmlns="http://www.w3.org/2000/svg" width="36" height="36" viewBox="0 0 36 36" fill="none">
<path fill-rule="evenodd" clip-rule="evenodd" d="M14.3107 5.5403C14.5646 3.68168 16.2772 2.3808 18.1358 2.63469L31.5801 4.4712C33.4387 4.72509 34.7396 6.43762 34.4857 8.29624L31.5435 29.8345C31.2896 31.6931 29.5771 32.994 27.7185 32.7401L14.2742 30.9036C12.4156 30.6497 11.1147 28.9371 11.3686 27.0785L14.3107 5.5403ZM17.6572 7.37938C17.6572 7.37938 17.0761 6.61011 16.7792 6.22378C16.6882 6.08409 16.646 5.91225 16.6703 5.73413C16.7241 5.34006 17.0871 5.06438 17.4811 5.11822C17.6639 5.14319 17.8212 5.23471 17.9319 5.36479C18.0734 5.26916 18.2496 5.22321 18.4323 5.24818C18.8264 5.30202 19.1021 5.66495 19.0482 6.05903C19.0239 6.23714 18.938 6.39147 18.813 6.50165C18.4443 6.78192 17.6572 7.37938 17.6572 7.37938ZM22.3666 21.812C22.3666 21.812 20.1845 18.9231 19.0693 17.4722C18.7279 16.9477 18.5691 16.3023 18.6605 15.6334C18.8627 14.1535 20.2257 13.1182 21.7056 13.3204C22.392 13.4142 22.9829 13.7578 23.3985 14.2464C23.93 13.8872 24.5914 13.7147 25.2777 13.8084C26.7577 14.0106 27.793 15.3736 27.5908 16.8535C27.4994 17.5224 27.1768 18.102 26.7072 18.5158C25.3227 19.5683 22.3666 21.812 22.3666 21.812ZM28.9682 29.0338C28.7222 28.6132 28.2424 27.7771 28.2424 27.7771C28.2424 27.7771 27.3864 28.2708 26.9855 28.5026C26.8475 28.5962 26.7429 28.7385 26.6964 28.9121C26.5935 29.2963 26.8213 29.691 27.2055 29.7939C27.3837 29.8417 27.5642 29.8182 27.7166 29.7411C27.8101 29.8841 27.9547 29.9947 28.1328 30.0424C28.517 30.1453 28.9117 29.9175 29.0147 29.5333C29.0612 29.3596 29.0408 29.1838 28.9682 29.0338ZM12.6223 4.104L4.42705 5.09164C2.56465 5.31608 1.23682 7.0078 1.46126 8.8702L4.06217 30.4523C4.28661 32.3147 5.97833 33.6425 7.84074 33.4181L13.349 32.7543C10.7519 32.0682 9.01434 29.537 9.38719 26.8075L10.1036 21.5627C9.49444 21.1374 9.06218 20.4642 8.96629 19.6683C8.88553 18.998 9.05106 18.3557 9.40077 17.8366C9.78663 17.3446 10.3301 16.6522 10.868 15.9671L12.3294 5.26926C12.3849 4.86267 12.4844 4.47287 12.6223 4.104ZM4.93683 7.36816C4.93683 7.36816 5.73865 8.00108 6.14661 8.31755C6.27725 8.43639 6.36665 8.60123 6.38943 8.79035C6.43985 9.20877 6.14166 9.58865 5.72323 9.63906C5.53099 9.66223 5.34681 9.61174 5.19917 9.50996C5.27295 9.74363 5.57446 10.0355 5.83293 10.0296L4.69841 10.1663C4.94906 10.1075 5.17496 9.75014 5.19063 9.51206C5.07146 9.64535 4.90497 9.73765 4.71329 9.76074C4.29486 9.81116 3.91498 9.51297 3.86457 9.09455C3.84178 8.90543 3.88849 8.7242 3.98716 8.57773C4.28997 8.19161 4.93683 7.36816 4.93683 7.36816Z" fill="#696F7A"/>
</svg>