<svg width="135" height="54" viewBox="0 0 135 54" fill="none" xmlns="http://www.w3.org/2000/svg">
<g filter="url(#filter0_d_2001_1454)">
<path d="M36.2624 18.7523C32.9383 15.4209 30.3254 17.3469 27.8778 18.2318C26.9575 18.5706 25.9676 18.6309 25.0003 18.6309C24.0316 18.6309 23.0456 18.5657 22.1227 18.2318C19.6752 17.3469 17.0622 15.4209 13.7381 18.7523C10.3645 22.1531 9.14068 30.3775 9.33913 33.8303C9.53758 37.3005 12.6963 38.9315 15.5242 36.433C18.2189 34.0699 21.0983 29.4405 25.0003 29.4405C28.913 29.4405 31.7807 34.055 34.4763 36.433C37.3043 38.9315 40.463 37.3005 40.6614 33.8303C40.8599 30.3775 39.6361 22.1531 36.2624 18.7697V18.7523Z" fill="#1D2452"/>
</g>
<g filter="url(#filter1_iii_2001_1454)">
<path d="M38.9062 16.7548C34.8017 12.6412 31.5752 15.0194 28.5529 16.1121C27.4164 16.5304 26.1941 16.6048 24.9996 16.6048C23.8035 16.6048 22.5859 16.5243 21.4464 16.1121C18.4241 15.0194 15.1976 12.6412 11.093 16.7548C6.92718 20.9541 5.41604 31.1097 5.66109 35.3733C5.90614 39.6583 9.80652 41.6723 13.2985 38.5871C16.6259 35.6691 20.1814 29.9527 24.9996 29.9527C29.8312 29.9527 33.3721 35.6507 36.7008 38.5871C40.1928 41.6723 44.0931 39.6583 44.3382 35.3733C44.5832 31.1097 43.0721 20.9541 38.9062 16.7762V16.7548Z" fill="url(#paint0_linear_2001_1454)"/>
</g>
<g filter="url(#filter2_d_2001_1454)">
<path fill-rule="evenodd" clip-rule="evenodd" d="M16.6749 19.7081C16.6749 19.4627 16.4759 19.2637 16.2305 19.2637H14.8214C14.5759 19.2637 14.377 19.4627 14.377 19.7081V20.9735C14.377 21.219 14.178 21.418 13.9325 21.418H12.6657C12.4202 21.418 12.2213 21.617 12.2213 21.8624V23.2715C12.2213 23.5169 12.4202 23.7159 12.6657 23.7159H13.9325C14.178 23.7159 14.377 23.9149 14.377 24.1603V25.4251C14.377 25.6706 14.5759 25.8696 14.8214 25.8696H16.2304C16.4759 25.8696 16.6749 25.6706 16.6749 25.4251V24.1603C16.6749 23.9149 16.8739 23.7159 17.1193 23.7159H18.3827C18.6282 23.7159 18.8272 23.5169 18.8272 23.2715V21.8624C18.8272 21.617 18.6282 21.418 18.3827 21.418H17.1193C16.8739 21.418 16.6749 21.219 16.6749 20.9735V19.7081Z" fill="url(#paint1_linear_2001_1454)"/>
</g>
<g filter="url(#filter3_d_2001_1454)">
<circle cx="31.8078" cy="24.0617" r="1.80781" fill="url(#paint2_linear_2001_1454)"/>
</g>
<g filter="url(#filter4_d_2001_1454)">
<circle cx="35.4233" cy="21.0717" r="1.80781" fill="url(#paint3_linear_2001_1454)"/>
</g>
<g filter="url(#filter5_d_2001_1454)">
<path d="M28.2924 16.0342C27.9338 15.9617 25.4081 15.9307 24.8001 15.9307C24.1921 15.9307 21.6664 15.9617 21.3078 16.0342C21.0584 16.086 21.1051 16.2827 21.1363 16.3655C21.1987 16.614 21.947 19.5127 22.2121 20.0718C22.29 20.2478 22.4303 20.5066 22.976 20.5273C23.4437 20.5377 23.7399 20.5066 24.8001 20.4963C25.8603 20.4963 26.0318 20.548 26.4995 20.5273C27.0452 20.5066 27.1855 20.2478 27.2634 20.0718C27.5285 19.5127 28.4015 16.614 28.4639 16.3655C28.4795 16.2827 28.5419 16.086 28.2924 16.0342Z" fill="url(#paint4_linear_2001_1454)"/>
</g>
<path d="M52 29.5003C68.5 22.5006 115.973 19.1891 106 27.5001C97 35 60.0289 49.6178 74.5 46C88.9711 42.3822 110.5 42 127 42" stroke="url(#paint5_linear_2001_1454)" stroke-width="8" stroke-linecap="round"/>
<path d="M64.4113 39.918C62.9367 39.918 61.714 39.3207 60.7433 38.126C59.7727 36.9127 59.2873 35.2513 59.2873 33.142C59.2873 31.014 59.7633 29.3247 60.7153 28.074C61.6673 26.8233 62.89 26.198 64.3833 26.198C65.8953 26.198 67.2953 26.7207 68.5833 27.766C69.0687 26.8513 69.8713 26.394 70.9913 26.394C71.9993 26.394 72.7833 26.618 73.3433 27.066C73.922 27.514 74.2113 28.3167 74.2113 29.474V34.598C74.2113 36.4087 74.09 37.9673 73.8473 39.274C73.6233 40.562 73.222 41.7007 72.6433 42.69C72.0833 43.6793 71.2993 44.4167 70.2913 44.902C69.302 45.3873 68.0793 45.63 66.6233 45.63C65.6153 45.63 64.682 45.49 63.8233 45.21C62.9647 44.93 62.2833 44.5847 61.7793 44.174C61.2753 43.7633 60.8833 43.3527 60.6033 42.942C60.3233 42.5313 60.1833 42.1767 60.1833 41.878C60.1833 41.5233 60.286 41.2247 60.4913 40.982C60.6967 40.7393 60.986 40.618 61.3593 40.618C61.5833 40.618 62.1433 40.8607 63.0393 41.346C63.954 41.8313 64.6913 42.074 65.2513 42.074C67.1553 42.074 68.1073 41.094 68.1073 39.134C67.0247 39.6567 65.7927 39.918 64.4113 39.918ZM68.2193 35.718L68.1913 30.426C67.874 29.9033 67.4727 29.642 66.9873 29.642C66.6513 29.642 66.3527 29.8193 66.0913 30.174C65.8487 30.5287 65.662 30.9673 65.5313 31.49C65.4193 32.0127 65.3633 32.5633 65.3633 33.142C65.3633 34.0193 65.5033 34.794 65.7833 35.466C66.0633 36.1193 66.4553 36.446 66.9593 36.446C67.4633 36.446 67.8833 36.2033 68.2193 35.718ZM80.8 39.918C79.3253 39.918 78.1027 39.3207 77.132 38.126C76.1613 36.9127 75.676 35.2607 75.676 33.17C75.676 31.042 76.152 29.3527 77.104 28.102C78.0747 26.8327 79.3067 26.198 80.8 26.198C82.312 26.198 83.712 26.73 85 27.794C85.504 26.8607 86.316 26.394 87.436 26.394C88.444 26.394 89.228 26.618 89.788 27.066C90.348 27.4953 90.628 28.298 90.628 29.474V36.754C90.628 37.874 90.3947 38.658 89.928 39.106C89.4613 39.5353 88.64 39.75 87.464 39.75C86.232 39.75 85.42 39.4047 85.028 38.714C83.8333 39.5167 82.424 39.918 80.8 39.918ZM84.608 30.482C84.2907 29.9407 83.88 29.67 83.376 29.67C82.8907 29.67 82.4987 30.0247 82.2 30.734C81.9013 31.4433 81.752 32.2553 81.752 33.17C81.752 34.0287 81.892 34.794 82.172 35.466C82.452 36.138 82.844 36.474 83.348 36.474C83.8707 36.474 84.2907 36.222 84.608 35.718V30.482ZM108.865 32.358C108.865 31.3127 108.445 30.79 107.605 30.79C107.231 30.79 106.951 31.0047 106.765 31.434C106.578 31.8633 106.485 32.4047 106.485 33.058C106.485 34.0473 106.466 34.8687 106.429 35.522C106.41 36.1753 106.354 36.7633 106.261 37.286C106.167 37.8087 106.055 38.2193 105.925 38.518C105.794 38.8167 105.617 39.0687 105.393 39.274C105.169 39.4607 104.917 39.5913 104.637 39.666C104.357 39.722 104.002 39.75 103.573 39.75C102.919 39.75 102.387 39.6567 101.977 39.47C101.585 39.2833 101.305 39.022 101.137 38.686C100.969 38.35 100.885 37.93 100.885 37.426V32.358C100.885 31.3127 100.465 30.79 99.6247 30.79C99.2887 30.79 99.0087 30.986 98.7847 31.378C98.5793 31.7513 98.4767 32.246 98.4767 32.862V36.754C98.4767 37.874 98.2433 38.658 97.7767 39.106C97.31 39.5353 96.4887 39.75 95.3127 39.75C94.2113 39.75 93.4553 39.498 93.0447 38.994C92.6527 38.4713 92.4567 37.622 92.4567 36.446V29.558C92.4567 28.606 92.7087 27.8407 93.2127 27.262C93.7353 26.6833 94.426 26.394 95.2847 26.394C96.8153 26.394 97.786 26.8887 98.1967 27.878C98.906 27.3553 99.5967 26.9913 100.269 26.786C100.959 26.5807 101.762 26.478 102.677 26.478C104.058 26.478 105.057 27.0753 105.673 28.27C105.766 28.1953 105.859 28.1207 105.953 28.046C107.39 27.0007 109.154 26.478 111.245 26.478C112.57 26.478 113.522 26.982 114.101 27.99C114.679 28.998 114.969 30.6873 114.969 33.058C114.969 34.0473 114.95 34.8687 114.913 35.522C114.894 36.1753 114.838 36.7633 114.745 37.286C114.651 37.8087 114.53 38.2193 114.381 38.518C114.25 38.8167 114.054 39.0687 113.793 39.274C113.55 39.4607 113.27 39.5913 112.953 39.666C112.654 39.722 112.271 39.75 111.805 39.75C111.095 39.75 110.517 39.6567 110.069 39.47C109.639 39.2833 109.331 39.022 109.145 38.686C108.958 38.35 108.865 37.93 108.865 37.426V32.358ZM124.308 39.918C122.031 39.918 120.146 39.33 118.652 38.154C117.178 36.978 116.44 35.3727 116.44 33.338C116.44 31.1353 117.168 29.3993 118.624 28.13C120.099 26.842 121.994 26.198 124.308 26.198C126.492 26.198 128.088 26.59 129.096 27.374C130.123 28.1393 130.636 29.194 130.636 30.538C130.636 30.7993 130.599 31.0513 130.524 31.294C130.468 31.5367 130.366 31.7793 130.216 32.022C130.086 32.246 129.899 32.4607 129.656 32.666C129.432 32.8527 129.171 33.03 128.872 33.198C128.574 33.3473 128.219 33.4687 127.808 33.562C127.398 33.6367 126.959 33.674 126.492 33.674L122.544 33.702C122.731 34.2993 123.067 34.7753 123.552 35.13C124.038 35.466 124.654 35.634 125.4 35.634C126.203 35.634 127.024 35.5313 127.864 35.326C128.219 35.2327 128.602 35.0833 129.012 34.878C129.442 34.6727 129.75 34.57 129.936 34.57C130.254 34.57 130.496 34.6633 130.664 34.85C130.851 35.0367 130.944 35.27 130.944 35.55C130.944 35.886 130.795 36.2967 130.496 36.782C130.198 37.2487 129.778 37.7247 129.236 38.21C128.714 38.6767 128.014 39.078 127.136 39.414C126.259 39.75 125.316 39.918 124.308 39.918ZM122.404 31.91C123.692 31.8913 124.392 31.882 124.504 31.882C124.784 31.882 124.99 31.714 125.12 31.378C125.214 31.1353 125.26 30.7993 125.26 30.37C125.26 29.194 124.906 28.606 124.196 28.606C123.935 28.606 123.674 28.746 123.412 29.026C123.17 29.306 122.955 29.7073 122.768 30.23C122.582 30.734 122.46 31.294 122.404 31.91Z" fill="#5C48AC"/>
<path d="M76.5 45.5C90.9711 41.8822 114.5 42.0004 131 42.0004" stroke="url(#paint6_linear_2001_1454)" stroke-width="8" stroke-linecap="round"/>
<path d="M67.4487 14.752L63.9487 21.92C63.6501 22.5173 63.3327 22.9467 62.9967 23.208C62.6607 23.4507 62.2594 23.572 61.7927 23.572C61.1954 23.572 60.6914 23.3667 60.2807 22.956C59.8701 22.5267 59.3381 21.7613 58.6847 20.66L55.4367 14.752V22.676C55.4367 23.4787 55.2501 24.0667 54.8767 24.44C54.5221 24.8133 53.9807 25 53.2527 25C52.4314 25 51.8341 24.8227 51.4607 24.468C51.0874 24.0947 50.9007 23.376 50.9007 22.312V10.104C50.9007 8.66667 51.2274 7.584 51.8807 6.856C52.5341 6.128 53.6354 5.764 55.1847 5.764C55.7634 5.764 56.2674 5.86667 56.6967 6.072C57.1261 6.25867 57.4434 6.48267 57.6487 6.744C57.8727 6.98667 58.0874 7.29467 58.2927 7.668L62.0447 15.872L66.0207 7.808C66.7114 6.464 67.9527 5.792 69.7447 5.792C70.5847 5.792 71.3034 5.94133 71.9007 6.24C72.4981 6.52 72.9647 6.98667 73.3007 7.64C73.6554 8.27467 73.8327 9.07733 73.8327 10.048V22.228C73.8141 24.076 72.6474 25 70.3327 25C69.4927 25 68.8021 24.776 68.2607 24.328C67.7381 23.8613 67.4674 23.1147 67.4487 22.088V14.752ZM75.8349 7.752C75.8349 7.136 76.0962 6.632 76.6189 6.24C77.1602 5.82933 77.9162 5.624 78.8869 5.624C80.9215 5.624 81.9389 6.33333 81.9389 7.752C81.9389 8.536 81.6775 9.08667 81.1549 9.404C80.6509 9.72133 79.8949 9.88 78.8869 9.88C78.0095 9.88 77.2815 9.712 76.7029 9.376C76.1242 9.04 75.8349 8.49867 75.8349 7.752ZM81.9109 22.004C81.9109 23.124 81.6775 23.908 81.2109 24.356C80.7442 24.7853 79.9229 25 78.7469 25C77.6455 25 76.8895 24.748 76.4789 24.244C76.0869 23.7213 75.8909 22.872 75.8909 21.696V14.808C75.8909 13.856 76.1429 13.0907 76.6469 12.512C77.1695 11.9333 77.8602 11.644 78.7189 11.644C79.7269 11.644 80.5109 11.868 81.0709 12.316C81.6309 12.7453 81.9109 13.548 81.9109 14.724V22.004ZM92.0461 17.468C92.0461 16.4227 91.6354 15.9 90.8141 15.9C90.4221 15.9 90.0954 16.068 89.8341 16.404C89.5914 16.7213 89.4514 17.1507 89.4141 17.692V22.004C89.4141 23.1427 89.1808 23.9267 88.7141 24.356C88.2474 24.7853 87.4261 25 86.2501 25C85.1488 25 84.3928 24.748 83.9821 24.244C83.5901 23.7213 83.3941 22.872 83.3941 21.696V14.808C83.3941 13.856 83.6461 13.0907 84.1501 12.512C84.6728 11.9333 85.3634 11.644 86.2221 11.644C86.9314 11.644 87.5288 11.7467 88.0141 11.952C88.4994 12.1573 88.8634 12.512 89.1061 13.016C90.5621 12.064 92.3354 11.588 94.4261 11.588C95.7514 11.588 96.7034 12.1107 97.2821 13.156C97.8794 14.2013 98.1781 15.9187 98.1781 18.308C98.1781 19.484 98.1501 20.4453 98.0941 21.192C98.0381 21.92 97.9448 22.5547 97.8141 23.096C97.7021 23.6187 97.5154 24.0107 97.2541 24.272C96.9928 24.5333 96.6848 24.72 96.3301 24.832C95.9941 24.944 95.5554 25 95.0141 25C93.9688 25 93.2128 24.804 92.7461 24.412C92.2981 24.02 92.0741 23.4413 92.0741 22.676L92.0461 17.468ZM99.62 7.752C99.62 7.136 99.8813 6.632 100.404 6.24C100.945 5.82933 101.701 5.624 102.672 5.624C104.707 5.624 105.724 6.33333 105.724 7.752C105.724 8.536 105.463 9.08667 104.94 9.404C104.436 9.72133 103.68 9.88 102.672 9.88C101.795 9.88 101.067 9.712 100.488 9.376C99.9093 9.04 99.62 8.49867 99.62 7.752ZM105.696 22.004C105.696 23.124 105.463 23.908 104.996 24.356C104.529 24.7853 103.708 25 102.532 25C101.431 25 100.675 24.748 100.264 24.244C99.872 23.7213 99.676 22.872 99.676 21.696V14.808C99.676 13.856 99.928 13.0907 100.432 12.512C100.955 11.9333 101.645 11.644 102.504 11.644C103.512 11.644 104.296 11.868 104.856 12.316C105.416 12.7453 105.696 13.548 105.696 14.724V22.004Z" fill="#413A92"/>
<defs>
<filter id="filter0_d_2001_1454" x="0.429715" y="14.6479" width="49.1411" height="38.5476" filterUnits="userSpaceOnUse" color-interpolation-filters="sRGB">
<feFlood flood-opacity="0" result="BackgroundImageFix"/>
<feColorMatrix in="SourceAlpha" type="matrix" values="0 0 0 0 0 0 0 0 0 0 0 0 0 0 0 0 0 0 127 0" result="hardAlpha"/>
<feOffset dy="6.66667"/>
<feGaussianBlur stdDeviation="4.44444"/>
<feComposite in2="hardAlpha" operator="out"/>
<feColorMatrix type="matrix" values="0 0 0 0 0.360151 0 0 0 0 0.493312 0 0 0 0 0.96543 0 0 0 0.45 0"/>
<feBlend mode="normal" in2="BackgroundImageFix" result="effect1_dropShadow_2001_1454"/>
<feBlend mode="normal" in="SourceGraphic" in2="effect1_dropShadow_2001_1454" result="shape"/>
</filter>
<filter id="filter1_iii_2001_1454" x="5.63574" y="7.764" width="38.7278" height="33.4245" filterUnits="userSpaceOnUse" color-interpolation-filters="sRGB">
<feFlood flood-opacity="0" result="BackgroundImageFix"/>
<feBlend mode="normal" in="SourceGraphic" in2="BackgroundImageFix" result="shape"/>
<feColorMatrix in="SourceAlpha" type="matrix" values="0 0 0 0 0 0 0 0 0 0 0 0 0 0 0 0 0 0 127 0" result="hardAlpha"/>
<feOffset dy="1.11111"/>
<feGaussianBlur stdDeviation="1.11111"/>
<feComposite in2="hardAlpha" operator="arithmetic" k2="-1" k3="1"/>
<feColorMatrix type="matrix" values="0 0 0 0 1 0 0 0 0 0.594111 0 0 0 0 0.219445 0 0 0 0.6 0"/>
<feBlend mode="normal" in2="shape" result="effect1_innerShadow_2001_1454"/>
<feColorMatrix in="SourceAlpha" type="matrix" values="0 0 0 0 0 0 0 0 0 0 0 0 0 0 0 0 0 0 127 0" result="hardAlpha"/>
<feOffset dy="-6.66667"/>
<feGaussianBlur stdDeviation="3.33333"/>
<feComposite in2="hardAlpha" operator="arithmetic" k2="-1" k3="1"/>
<feColorMatrix type="matrix" values="0 0 0 0 0.185099 0 0 0 0 0.0518593 0 0 0 0 0.718055 0 0 0 0.71 0"/>
<feBlend mode="normal" in2="effect1_innerShadow_2001_1454" result="effect2_innerShadow_2001_1454"/>
<feColorMatrix in="SourceAlpha" type="matrix" values="0 0 0 0 0 0 0 0 0 0 0 0 0 0 0 0 0 0 127 0" result="hardAlpha"/>
<feOffset dy="-1.11111"/>
<feGaussianBlur stdDeviation="1.88889"/>
<feComposite in2="hardAlpha" operator="arithmetic" k2="-1" k3="1"/>
<feColorMatrix type="matrix" values="0 0 0 0 0.147222 0 0 0 0 0.693 0 0 0 0 1 0 0 0 0.47 0"/>
<feBlend mode="normal" in2="effect2_innerShadow_2001_1454" result="effect3_innerShadow_2001_1454"/>
</filter>
<filter id="filter2_d_2001_1454" x="9.99903" y="18.1526" width="11.0503" height="11.0504" filterUnits="userSpaceOnUse" color-interpolation-filters="sRGB">
<feFlood flood-opacity="0" result="BackgroundImageFix"/>
<feColorMatrix in="SourceAlpha" type="matrix" values="0 0 0 0 0 0 0 0 0 0 0 0 0 0 0 0 0 0 127 0" result="hardAlpha"/>
<feOffset dy="1.11111"/>
<feGaussianBlur stdDeviation="1.11111"/>
<feComposite in2="hardAlpha" operator="out"/>
<feColorMatrix type="matrix" values="0 0 0 0 0.312464 0 0 0 0 0.117863 0 0 0 0 0.848611 0 0 0 0.76 0"/>
<feBlend mode="normal" in2="BackgroundImageFix" result="effect1_dropShadow_2001_1454"/>
<feBlend mode="normal" in="SourceGraphic" in2="effect1_dropShadow_2001_1454" result="shape"/>
</filter>
<filter id="filter3_d_2001_1454" x="27.7778" y="21.1428" width="8.06004" height="8.06017" filterUnits="userSpaceOnUse" color-interpolation-filters="sRGB">
<feFlood flood-opacity="0" result="BackgroundImageFix"/>
<feColorMatrix in="SourceAlpha" type="matrix" values="0 0 0 0 0 0 0 0 0 0 0 0 0 0 0 0 0 0 127 0" result="hardAlpha"/>
<feOffset dy="1.11111"/>
<feGaussianBlur stdDeviation="1.11111"/>
<feComposite in2="hardAlpha" operator="out"/>
<feColorMatrix type="matrix" values="0 0 0 0 0.312464 0 0 0 0 0.117863 0 0 0 0 0.848611 0 0 0 0.76 0"/>
<feBlend mode="normal" in2="BackgroundImageFix" result="effect1_dropShadow_2001_1454"/>
<feBlend mode="normal" in="SourceGraphic" in2="effect1_dropShadow_2001_1454" result="shape"/>
</filter>
<filter id="filter4_d_2001_1454" x="31.3933" y="18.1528" width="8.06004" height="8.06017" filterUnits="userSpaceOnUse" color-interpolation-filters="sRGB">
<feFlood flood-opacity="0" result="BackgroundImageFix"/>
<feColorMatrix in="SourceAlpha" type="matrix" values="0 0 0 0 0 0 0 0 0 0 0 0 0 0 0 0 0 0 127 0" result="hardAlpha"/>
<feOffset dy="1.11111"/>
<feGaussianBlur stdDeviation="1.11111"/>
<feComposite in2="hardAlpha" operator="out"/>
<feColorMatrix type="matrix" values="0 0 0 0 0.312464 0 0 0 0 0.117863 0 0 0 0 0.848611 0 0 0 0.76 0"/>
<feBlend mode="normal" in2="BackgroundImageFix" result="effect1_dropShadow_2001_1454"/>
<feBlend mode="normal" in="SourceGraphic" in2="effect1_dropShadow_2001_1454" result="shape"/>
</filter>
<filter id="filter5_d_2001_1454" x="18.8889" y="14.8196" width="11.8156" height="9.04601" filterUnits="userSpaceOnUse" color-interpolation-filters="sRGB">
<feFlood flood-opacity="0" result="BackgroundImageFix"/>
<feColorMatrix in="SourceAlpha" type="matrix" values="0 0 0 0 0 0 0 0 0 0 0 0 0 0 0 0 0 0 127 0" result="hardAlpha"/>
<feOffset dy="1.11111"/>
<feGaussianBlur stdDeviation="1.11111"/>
<feComposite in2="hardAlpha" operator="out"/>
<feColorMatrix type="matrix" values="0 0 0 0 0.879167 0 0 0 0 0.47475 0 0 0 0 0 0 0 0 0.55 0"/>
<feBlend mode="normal" in2="BackgroundImageFix" result="effect1_dropShadow_2001_1454"/>
<feBlend mode="normal" in="SourceGraphic" in2="effect1_dropShadow_2001_1454" result="shape"/>
</filter>
<linearGradient id="paint0_linear_2001_1454" x1="24.9996" y1="14.4307" x2="24.9996" y2="40.0773" gradientUnits="userSpaceOnUse">
<stop stop-color="#7F31FF"/>
<stop offset="0.926666" stop-color="#4820FF"/>
</linearGradient>
<linearGradient id="paint1_linear_2001_1454" x1="15.5242" y1="19.2637" x2="15.5242" y2="25.8696" gradientUnits="userSpaceOnUse">
<stop stop-color="#FFB950"/>
<stop offset="1" stop-color="#FA5C2A"/>
</linearGradient>
<linearGradient id="paint2_linear_2001_1454" x1="31.8078" y1="22.2539" x2="31.8078" y2="25.8695" gradientUnits="userSpaceOnUse">
<stop stop-color="#FFB950"/>
<stop offset="1" stop-color="#FA5C2A"/>
</linearGradient>
<linearGradient id="paint3_linear_2001_1454" x1="35.4233" y1="19.2639" x2="35.4233" y2="22.8795" gradientUnits="userSpaceOnUse">
<stop stop-color="#FFB950"/>
<stop offset="1" stop-color="#FA5C2A"/>
</linearGradient>
<linearGradient id="paint4_linear_2001_1454" x1="24.7967" y1="15.9307" x2="24.7967" y2="20.5322" gradientUnits="userSpaceOnUse">
<stop stop-color="#FFBA51"/>
<stop offset="1" stop-color="#FF531D"/>
</linearGradient>
<linearGradient id="paint5_linear_2001_1454" x1="46.5" y1="28.5" x2="71" y2="45.5" gradientUnits="userSpaceOnUse">
<stop stop-color="#C3DB08"/>
<stop offset="1" stop-color="#FEB33B"/>
</linearGradient>
<linearGradient id="paint6_linear_2001_1454" x1="74.5" y1="44" x2="127" y2="44" gradientUnits="userSpaceOnUse">
<stop stop-color="#FEB33B"/>
<stop offset="1" stop-color="#FB9142"/>
</linearGradient>
</defs>
</svg>
