<svg xmlns="http://www.w3.org/2000/svg" width="36" height="36" viewBox="0 0 36 36" fill="none">
    <path fill-rule="evenodd" clip-rule="evenodd"
        d="M12.002 4.49609C10.0578 5.34524 8.32845 6.59455 6.91797 8.13994C7.02463 8.20648 7.11135 8.30698 7.15997 8.43335L9.48364 14.4732L12.1465 15.5523L17.4523 11.3712V8.69953L12.2485 4.93479C12.1002 4.82756 12.0155 4.6652 12.002 4.49609ZM29.2806 8.35975C29.0872 8.39941 28.9174 8.53356 28.8409 8.73135L26.6215 14.472L23.9583 15.5513L18.6523 11.3701V8.70477L24.0439 4.9395C24.1596 4.85874 24.238 4.74458 24.2754 4.61914C26.198 5.50581 27.901 6.78733 29.2806 8.35975ZM18.0004 33.2978C19.9355 33.2978 21.785 32.9314 23.4833 32.2642C23.3476 32.1542 23.2607 31.9861 23.2607 31.7977V26.2934L21.6223 24.0801H14.4828L12.8441 26.2939V31.7977C12.8441 32.0021 12.7419 32.1825 12.5859 32.2909C14.2655 32.9412 16.0913 33.2978 18.0004 33.2978ZM3 18.2498C3 20.878 3.67591 23.3484 4.86338 25.4965C4.93598 25.4653 5.01597 25.448 5.1 25.448H11.9417L13.5257 23.3083L11.7426 16.6842L9.0302 15.585L3.24687 18.1965C3.16664 18.2327 3.08265 18.2499 3 18.2498ZM32.9999 18.4699C32.9623 21.0788 32.2587 23.5265 31.0515 25.6505C30.9415 25.526 30.7807 25.4475 30.6016 25.4475H24.1638L22.5801 23.3081L24.3633 16.6836L27.0524 15.5938L32.4176 18.4777C32.6068 18.5794 32.8262 18.5692 32.9999 18.4699Z"
        fill="url(#paint0_radial_2006_436)" />
    <path fill-rule="evenodd" clip-rule="evenodd"
        d="M23.0982 3.8885L18.0582 7.40819L13.0977 3.81943C14.6339 3.28841 16.2834 3 18.0002 3C19.79 3 21.5067 3.31347 23.0982 3.8885ZM3 17.0091C3.25025 14.0547 4.3568 11.3443 6.07052 9.12695L8.19966 14.6612L3 17.0091ZM23.1797 16.4654L21.4661 22.8315H14.6415L12.9277 16.465L18.0535 12.4258L23.1797 16.4654ZM24.459 31.7909C26.8786 30.6348 28.9399 28.8494 30.4311 26.6465H24.4604V31.7486L24.4603 31.7611L24.4598 31.7763L24.459 31.7909ZM11.6513 31.8428C9.18422 30.6886 7.08302 28.8826 5.56934 26.6465H11.644V31.7486C11.644 31.7807 11.6465 31.8121 11.6513 31.8428ZM29.9536 9.18359C31.7095 11.4952 32.8102 14.3317 32.9789 17.4164L27.8389 14.6534L29.9536 9.18359Z"
        fill="url(#paint1_linear_2006_436)" />
    <defs>
        <radialGradient id="paint0_radial_2006_436" cx="0" cy="0" r="1"
            gradientUnits="userSpaceOnUse"
            gradientTransform="translate(12.4549 11.6723) rotate(45.8467) scale(23.5709 18.8041)">
            <stop stop-color="#FE7C68" />
            <stop offset="0.655" stop-color="#F93030" />
            <stop offset="1" stop-color="#EF2B89" />
        </radialGradient>
        <linearGradient id="paint1_linear_2006_436" x1="13.7199" y1="13.6573" x2="27.4937"
            y2="28.991" gradientUnits="userSpaceOnUse">
            <stop stop-color="#5DA1FF" />
            <stop offset="0.635107" stop-color="#3E40DD" />
            <stop offset="1" stop-color="#7B3EDD" />
        </linearGradient>
    </defs>
</svg>